<?xml version="1.0" encoding="UTF-8"?> <svg xmlns="http://www.w3.org/2000/svg" id="Layer_1" data-name="Layer 1" viewBox="0 0 80 80"><defs><style>.cls-1{fill:none;stroke:#1b54f8;stroke-miterlimit:10;stroke-width:2px;}.cls-2{fill:#1b54f8;}</style></defs><path id="Rectangle" class="cls-1" d="M40,1h0A39,39,0,0,1,79,40h0A39,39,0,0,1,40,79h0A39,39,0,0,1,1,40H1A39,39,0,0,1,40,1Z"></path><g id="noun_Doctor_2524453" data-name="noun Doctor 2524453"><path id="Shape" class="cls-2" d="M41.67,45H38.33a17.25,17.25,0,0,0-5.24.84H33A17.53,17.53,0,0,0,21,62.48v1.68a.84.84,0,0,0,.83.84H58.17a.84.84,0,0,0,.83-.84V62.48A17.46,17.46,0,0,0,41.67,45Zm4.55,10.66a.9.9,0,1,1-.93.93.87.87,0,0,1,.25-.65.88.88,0,0,1,.65-.28Zm11.11,7.66H22.67v-.84a15.83,15.83,0,0,1,9.91-14.66V51A3.72,3.72,0,0,0,29.7,54.6v3.67a.84.84,0,0,0,.83.85h1.32a.85.85,0,0,0,0-1.69h-.49V54.58a2.05,2.05,0,0,1,4.1,0v2.85h-.55a.85.85,0,0,0,0,1.69h1.38a.84.84,0,0,0,.83-.85V54.58a3.73,3.73,0,0,0-2.87-3.64V47.25a15.63,15.63,0,0,1,4.08-.57h3.34a16.13,16.13,0,0,1,3.72.47v7a2.56,2.56,0,1,0,1.66,0V47.66A15.84,15.84,0,0,1,57.33,62.48Z"></path><path id="Shape-2" data-name="Shape" class="cls-2" d="M40.43,44A13.5,13.5,0,0,0,53,35.39,14.37,14.37,0,0,0,50.05,20.1a13.16,13.16,0,0,0-14.75-3,14,14,0,0,0-8.3,13A13.78,13.78,0,0,0,40.43,44Zm0-1.71A12,12,0,0,1,28.7,31h1.08a19.45,19.45,0,0,0,7.66-1.61,14.69,14.69,0,0,0,6.2-4.67,13.53,13.53,0,0,0,8.67,6A12.06,12.06,0,0,1,40.43,42.29Zm0-24.57A12.12,12.12,0,0,1,52.29,29c-6.17-1.67-7.73-6-7.79-6.19a.83.83,0,0,0-.74-.57.82.82,0,0,0-.82.5s-1.47,3.16-6.17,5.14a17.8,17.8,0,0,1-8.11,1.42A12,12,0,0,1,40.43,17.72Z"></path></g></svg> 