<?xml version="1.0" encoding="UTF-8"?> <svg xmlns="http://www.w3.org/2000/svg" id="Layer_1" data-name="Layer 1" viewBox="0 0 80 80"><defs><style>.cls-1{fill:none;stroke:#1b54f8;stroke-miterlimit:10;stroke-width:2px;}.cls-2{fill:#1b54f8;}</style></defs><path id="OnDemandTaxiApp" class="cls-1" d="M40,1h0A39,39,0,0,1,79,40h0A39,39,0,0,1,40,79h0A39,39,0,0,1,1,40H1A39,39,0,0,1,40,1Z"></path><path id="Shape" class="cls-2" d="M67.66,50.17a.87.87,0,0,0,.29-.65c0-1.56,0-7,0-8.5a5.49,5.49,0,0,0-5.63-5.57c-3,0-6,0-9.12,0L51.76,33c-.7-1.2-1.41-2.4-2.09-3.6a2.15,2.15,0,0,0-2-1.19H43.52l-2.39-2.8a.9.9,0,0,0-.7-.33H35.57a.94.94,0,0,0-.71.33l-2.39,2.8H27.73a1.94,1.94,0,0,0-2,1.26c-.49,1.08-1,2.15-1.5,3.23l-1.3,2.78H21.61c-.71,0-1.41,0-2.12,0a6.56,6.56,0,0,0-6.18,4.87c-.06.27-.24,1.07-.26,6a0,0,0,0,1,0,0v0c0,.63,0,1.32,0,2.09A1.69,1.69,0,0,0,15,50.42h6a5.63,5.63,0,0,0,1.55,2.85,5.54,5.54,0,0,0,3.83,1.67h0a5.68,5.68,0,0,0,5.41-4.49H51.94a5.64,5.64,0,0,0,1.54,2.82,5.54,5.54,0,0,0,3.84,1.67h0a5.68,5.68,0,0,0,5.42-4.52h3.41c.57,0,.8,0,.82,0A1,1,0,0,0,67.66,50.17ZM47.64,30c.26,0,.3,0,.43.25.69,1.22,1.4,2.43,2.11,3.63l.91,1.58H38.56V30h4.58C44.64,30,46.14,30,47.64,30ZM36,26.87h4l1.13,1.32H34.87ZM25.9,33.43c.5-1.08,1-2.15,1.5-3.23l.32-.2c1.73,0,3.45,0,5.18,0h3.82v5.46H25Zm.45,19.7v0A3.66,3.66,0,0,1,23.81,52a3.54,3.54,0,0,1-1.11-2.5,3.85,3.85,0,0,1,3.69-3.6,3.62,3.62,0,1,1,0,7.23Zm31,0v0A3.68,3.68,0,0,1,54.79,52a3.56,3.56,0,0,1-1.11-2.5,3.67,3.67,0,0,1,7.34,0A3.81,3.81,0,0,1,57.33,53.13Zm8.79-4.52H62.75a5.48,5.48,0,0,0-10.8,0H31.77a5.76,5.76,0,0,0-5.42-4.55A5.74,5.74,0,0,0,21,48.61H14.89a1.94,1.94,0,0,1,0-.27v-1h2a.91.91,0,1,0,0-1.81h-2a32.71,32.71,0,0,1,.21-4.75,4.7,4.7,0,0,1,4.44-3.45c1.17,0,2.33,0,3.49,0l.17,0H62.32A3.63,3.63,0,0,1,66,40.12H64.34a.9.9,0,1,0,0,1.8h1.78Z"></path><rect id="Rectangle" class="cls-2" x="35.8" y="40.33" width="2.31" height="2.34"></rect><rect id="Rectangle-2" data-name="Rectangle" class="cls-2" x="40.81" y="40.33" width="2.31" height="2.34"></rect><rect id="Rectangle-3" data-name="Rectangle" class="cls-2" x="45.87" y="40.33" width="2.31" height="2.34"></rect><rect id="Rectangle-4" data-name="Rectangle" class="cls-2" x="38.31" y="42.91" width="2.31" height="2.34"></rect><rect id="Rectangle-5" data-name="Rectangle" class="cls-2" x="43.36" y="42.91" width="2.31" height="2.34"></rect></svg> 