<?xml version="1.0" encoding="UTF-8"?> <svg xmlns="http://www.w3.org/2000/svg" id="Layer_1" data-name="Layer 1" viewBox="0 0 80 80"><defs><style>.cls-1{fill:none;stroke:#1b54f8;stroke-miterlimit:10;stroke-width:2px;}.cls-2{fill:#1b54f8;}</style></defs><path id="OnDemandFoodDeliveryApp" class="cls-1" d="M40,1h0A39,39,0,0,1,79,40h0A39,39,0,0,1,40,79h0A39,39,0,0,1,1,40H1A39,39,0,0,1,40,1Z"></path><g id="noun_Food-Delivery_1875329" data-name="noun Food-Delivery 1875329"><g id="Group"><path id="Shape" class="cls-2" d="M68.38,47.36a10.54,10.54,0,0,0-9.31-4.81c.7-2.44-1.67-7.95-4.48-9.35a2.65,2.65,0,0,1-1.5-1.83A18.67,18.67,0,0,0,52,27.44a2.64,2.64,0,0,0-2.46-1.75H44.13a2.62,2.62,0,1,0,0,5.24h1.49V47.79a.88.88,0,0,1-.87.88H35.87a1.06,1.06,0,0,1-.88-.61l-1.84-4.81A2.69,2.69,0,0,0,34.55,41v-.09a2.63,2.63,0,0,0-2.63-2.62H16a2.64,2.64,0,0,0-2.64,2.62V41a2.44,2.44,0,0,0,1.06,2l-3,10a.9.9,0,0,0,.88,1.13h5.53a6.22,6.22,0,0,0,12.31,0H49.67a.83.83,0,0,0,.88-.87c0-8.82,11.6-12.23,16.43-4.8a.87.87,0,0,0,1.23.26A1,1,0,0,0,68.38,47.36ZM15.22,41a.87.87,0,0,1,.88-.87h16A.87.87,0,0,1,33,41v.09a.88.88,0,0,1-.88.87H16a.88.88,0,0,1-.88-.87V41ZM24,57.67a4.5,4.5,0,0,1-4.49-4.46h0A4.49,4.49,0,1,1,24,57.67Zm24.78-5.33H30.16a6.22,6.22,0,0,0-12.31,0H13.46l2.64-8.57H31.39l1.93,5.07a2.64,2.64,0,0,0,2.46,1.75h8.88A2.63,2.63,0,0,0,47.29,48V30.14a.82.82,0,0,0-.87-.87H44a.88.88,0,1,1,0-1.75h5.45a1.08,1.08,0,0,1,.88.62,24.26,24.26,0,0,1,1,3.66A4.42,4.42,0,0,0,53.8,35c1.32.61,3.78,3.84,3.6,7.51a.64.64,0,0,0,.09.44A10.43,10.43,0,0,0,48.79,52.34Z"></path><path id="Shape-2" data-name="Shape" class="cls-2" d="M59.42,47a6.2,6.2,0,1,0,6.24,6.2A6.24,6.24,0,0,0,59.42,47Zm0,10.66a4.46,4.46,0,1,1,4.48-4.46A4.43,4.43,0,0,1,59.42,57.67Z"></path><path id="Shape-3" data-name="Shape" class="cls-2" d="M15.39,36.61H31.48a1.76,1.76,0,0,0,1.75-1.75V20.27a1.76,1.76,0,0,0-1.75-1.75H15.39a1.76,1.76,0,0,0-1.75,1.75V34.86A1.76,1.76,0,0,0,15.39,36.61ZM25.68,20.27v2.54a1.28,1.28,0,0,0-1.15-.18l-1.14.61c-.88-.43-1.41-1-2-.61l-.26.18V20.27Zm-10.29,0h4.05v4a.87.87,0,0,0,1.31.79l1.15-.61,1.14.61a.82.82,0,0,0,.88,0l1.14-.61,1.14.61a.88.88,0,0,0,1.32-.79v-4h4V34.86H15.39Z"></path><path id="Path" class="cls-2" d="M60,52.34h-.88a.87.87,0,1,0,0,1.74H60a.82.82,0,0,0,.88-.87A.88.88,0,0,0,60,52.34Z"></path><path id="Path-2" data-name="Path" class="cls-2" d="M24.45,52.34h-.88a.87.87,0,1,0,0,1.74h.88a.87.87,0,1,0,0-1.74Z"></path></g></g></svg> 