<?xml version="1.0" encoding="UTF-8"?> <svg xmlns="http://www.w3.org/2000/svg" id="Layer_1" data-name="Layer 1" viewBox="0 0 80 80"><defs><style>.cls-1{fill:none;stroke:#1b54f8;stroke-miterlimit:10;stroke-width:2px;}.cls-2{fill:#1b54f8;}</style></defs><path id="Rectangle-Copy-3" class="cls-1" d="M40,1h0A39,39,0,0,1,79,40h0A39,39,0,0,1,40,79h0A39,39,0,0,1,1,40H1A39,39,0,0,1,40,1Z"></path><g id="noun_Technician_1420728" data-name="noun Technician 1420728"><path id="Shape" class="cls-2" d="M51.75,20A11.15,11.15,0,0,0,43,24.14a.89.89,0,0,0,.14,1,.85.85,0,0,0,1-.14,9.93,9.93,0,1,1,7.59,16.43,10.23,10.23,0,0,1-5.63-1.86c-.28-.29-.7-.14-1,.15a.7.7,0,0,0,.14,1,10.68,10.68,0,0,0,6.47,2.15,11.43,11.43,0,0,0,0-22.86ZM36.5,21.4a4.75,4.75,0,0,0-.92,0l-8.44,1.43a4.7,4.7,0,0,0-2.81,1.86A4,4,0,0,0,23.62,28l.89,3.43h-.18a2.18,2.18,0,0,0-2.11,2.14V35a2.18,2.18,0,0,0,2.11,2.14h.83a8.6,8.6,0,0,0,3.39,5.51v2.83L22.5,47.57a7,7,0,0,0-3.88,3.64,5.36,5.36,0,0,0-.24.6c0,.06-.05.12-.07.19a7,7,0,0,0-.19.79c0,.07,0,.14,0,.22A6.71,6.71,0,0,0,18,54v5.29a.67.67,0,0,0,.7.71H48.23a.94.94,0,0,0,.3,0,.68.68,0,0,0,.23-.14,1.24,1.24,0,0,0,.32-.52V54a7.35,7.35,0,0,0-1-3.43,1.39,1.39,0,0,0-.22-.15,6.42,6.42,0,0,0-3.43-2.71l-6.07-2.09a1.37,1.37,0,0,0,0-.19V42.65a8.6,8.6,0,0,0,3.39-5.51h.83A2.18,2.18,0,0,0,44.72,35V33.57a2.18,2.18,0,0,0-2.11-2.14h-.14l.7-2a3.39,3.39,0,0,0-.7-3,3.34,3.34,0,0,0-2.11-1.29A4.22,4.22,0,0,0,39,22.43,4,4,0,0,0,36.5,21.4Zm0,1.41a2.21,2.21,0,0,1,1.62.62,3.4,3.4,0,0,1,1,2.28.91.91,0,0,0,.71.86,2,2,0,0,1,1.68.86,1.88,1.88,0,0,1,.43,1.71L40.6,32.86h-.1a.67.67,0,0,1-.7-.72A2.18,2.18,0,0,0,37.69,30H29.25a2.18,2.18,0,0,0-2.11,2.14.67.67,0,0,1-.7.72h-.08L25,27.71a3.29,3.29,0,0,1,.56-2.28,3.15,3.15,0,0,1,1.83-1.14l8.44-1.43A2.68,2.68,0,0,1,36.49,22.81ZM52.93,23c-.25,0-.51.22-.62.54l-.84,1.71a.66.66,0,0,0,0,.72l1.25,1.77-3,6.39-2.17.13c-.28,0-.42.14-.56.43l-.85,1.71a.69.69,0,0,0,.29,1,.6.6,0,0,0,1-.29l.7-1.43,1.69-.14,1,1.43-.71,1.43a.69.69,0,0,0,.28,1h.28c.29,0,.43-.15.57-.57L52,37.14a.64.64,0,0,0,0-.71L51,34.9l3.16-6.69L56,28c.28,0,.42-.14.56-.43l.85-1.71c.14-.29,0-.72-.29-.72a.67.67,0,0,0-1,.29l-.7,1.43-1.27.1a.61.61,0,0,0-.14-.1.59.59,0,0,0-.45-.1l-.82-1.19.71-1.43a.69.69,0,0,0-.28-1A.38.38,0,0,0,52.93,23Zm-23.68,8.4h8.44a.66.66,0,0,1,.7.71,2.19,2.19,0,0,0,2.11,2.15v1.42a7,7,0,1,1-14.06,0V34.29a2.19,2.19,0,0,0,2.11-2.15A.66.66,0,0,1,29.25,31.43Zm-4.92,1.43h.55l.15.57,0,0a.3.3,0,0,0,0,.1v2.14h-.7a.67.67,0,0,1-.71-.71V33.57A.67.67,0,0,1,24.33,32.86Zm17.64,0h.64a.66.66,0,0,1,.7.71V35a.66.66,0,0,1-.7.71h-.7V33.57a.73.73,0,0,0-.08-.33ZM30,43.49a8.12,8.12,0,0,0,7,0v1.94a2.81,2.81,0,0,1-.56,1.14,3.76,3.76,0,0,1-5.9,0A1.46,1.46,0,0,1,30,45.43Zm-1.05,3.3a4.18,4.18,0,0,0,.49.78,5.16,5.16,0,0,0,8.16,0,4.94,4.94,0,0,0,.43-.66L44,49a5,5,0,0,1,2.21,1.51,7.88,7.88,0,0,0-5.73,7.63v.43H26.44v-.43a7.89,7.89,0,0,0-5.75-7.64,5.74,5.74,0,0,1,2.23-1.64ZM47,51.71a4.29,4.29,0,0,1,.38.95c0,.1,0,.2.07.3a5.58,5.58,0,0,1,.11,1v4.57H41.77v-.43A6.56,6.56,0,0,1,47,51.71Zm-27.07,0A6.67,6.67,0,0,1,25,58.14v.43H19.41V54a7.63,7.63,0,0,1,.08-.92A5.49,5.49,0,0,1,19.9,51.74Z"></path></g></svg> 