<?xml version="1.0" encoding="UTF-8"?> <svg xmlns="http://www.w3.org/2000/svg" id="Layer_1" data-name="Layer 1" viewBox="0 0 80 80"><defs><style>.cls-1{fill:none;stroke:#1b54f8;stroke-miterlimit:10;stroke-width:2px;}.cls-2{fill:#1b54f8;}</style></defs><path id="Rectangle-Copy-4" class="cls-1" d="M40,1h0A39,39,0,0,1,79,40h0A39,39,0,0,1,40,79h0A39,39,0,0,1,1,40H1A39,39,0,0,1,40,1Z"></path><g id="noun_delivery_1379469" data-name="noun delivery 1379469"><g id="Group"><path id="Shape" class="cls-2" d="M62.92,41.33a1,1,0,0,0-.21-.62L59.81,37h0l-3.22-6.75a6,6,0,0,0-5.42-3.42H45.31V25.28a1,1,0,0,0-1-1H22.93a1,1,0,0,0,0,2H43.31V37.47a1,1,0,0,0,1,1H58.44l2.5,3.2V50.2H57.08a5.55,5.55,0,0,0-10.93,0H36.23a5.56,5.56,0,0,0-10.95,0H22.43a1,1,0,1,0,0,2H25.3a5.56,5.56,0,0,0,10.93,0h9.91a5.55,5.55,0,0,0,10.92,0h3.86a2,2,0,0,0,2-2ZM45.31,28.82h5.88a4,4,0,0,1,3.61,2.29l2.57,5.37H45.31ZM30.76,54.74a3.57,3.57,0,1,1,3.56-3.56,3.57,3.57,0,0,1-3.56,3.56Zm20.84,0a3.57,3.57,0,1,1,3.57-3.56A3.56,3.56,0,0,1,51.6,54.74Z"></path><path id="Path" class="cls-2" d="M27.08,43.5a1,1,0,0,0-1-1h-5.5a1,1,0,0,0,0,2h5.5A1,1,0,0,0,27.08,43.5Z"></path><path id="Path-2" data-name="Path" class="cls-2" d="M18.08,38.5h11.5a1,1,0,0,0,0-2H18.08a1,1,0,0,0,0,2Z"></path><path id="Path-3" data-name="Path" class="cls-2" d="M19.58,31.5a1,1,0,0,0,1,1h11.5a1,1,0,0,0,0-2H20.58A1,1,0,0,0,19.58,31.5Z"></path></g></g></svg> 