<?xml version="1.0" encoding="UTF-8"?> <svg xmlns="http://www.w3.org/2000/svg" id="Layer_1" data-name="Layer 1" viewBox="0 0 80 80"><defs><style>.cls-1{fill:none;stroke-width:2px;}.cls-1,.cls-2{stroke:#1b54f8;stroke-miterlimit:10;}.cls-2{fill:#1b54f8;stroke-width:0.25px;}</style></defs><path id="Rectangle-Copy-5" class="cls-1" d="M40,1h0A39,39,0,0,1,79,40h0A39,39,0,0,1,40,79h0A39,39,0,0,1,1,40H1A39,39,0,0,1,40,1Z"></path><g id="noun_Hotel_2629791" data-name="noun Hotel 2629791"><path id="Shape" class="cls-2" d="M24.58,62H56.42a.57.57,0,0,0,.58-.56V19.56a.57.57,0,0,0-.58-.56H24.58a.57.57,0,0,0-.58.56V61.44A.57.57,0,0,0,24.58,62Zm.58-41.88H55.84v7.26H25.16Zm0,8.37H55.84V60.88H25.16Z"></path><path id="Shape-2" data-name="Shape" class="cls-2" d="M41.41,22H26.59a.59.59,0,0,0-.59.57v2.86a.59.59,0,0,0,.59.57H41.41a.59.59,0,0,0,.59-.57V22.57A.59.59,0,0,0,41.41,22Zm-.6,2.86H27.19V23.14H40.81Z"></path><path id="Shape-3" data-name="Shape" class="cls-2" d="M47.43,22H44.57a.58.58,0,0,0-.57.57v2.86a.58.58,0,0,0,.57.57h2.86a.58.58,0,0,0,.57-.57V22.57A.58.58,0,0,0,47.43,22Zm-.57,2.86H45.14V23.14h1.72Z"></path><path id="Shape-4" data-name="Shape" class="cls-2" d="M52.43,22H49.57a.58.58,0,0,0-.57.57v2.86a.58.58,0,0,0,.57.57h2.86a.58.58,0,0,0,.57-.57V22.57A.58.58,0,0,0,52.43,22Zm-.57,2.86H50.14V23.14h1.72Z"></path><path id="Shape-5" data-name="Shape" class="cls-2" d="M41,34A10.77,10.77,0,0,0,30,44.5,10.77,10.77,0,0,0,41,55,10.77,10.77,0,0,0,52,44.5,10.77,10.77,0,0,0,41,34Zm0,19.86a9.88,9.88,0,0,1-8.42-4.59,2.28,2.28,0,0,0,1.07-.51l.34-.31a1.32,1.32,0,0,1,2.13,0l.34.31a2.47,2.47,0,0,0,3.13,0l.34-.31a1.33,1.33,0,0,1,2.14,0l.34.31a2.44,2.44,0,0,0,3.11,0c.12-.1.23-.21.32-.3a1.39,1.39,0,0,1,2.21,0c.1.09.2.2.32.3a2.29,2.29,0,0,0,1.06.51A9.91,9.91,0,0,1,41,53.86Zm9-5.65-.09,0a1.32,1.32,0,0,1-1-.52,2.57,2.57,0,0,0-3.91,0,1.29,1.29,0,0,1-1,.52,1.4,1.4,0,0,1-1.06-.54,2.51,2.51,0,0,0-3.82,0,1.32,1.32,0,0,1-2.13,0,2.5,2.5,0,0,0-3.81,0,1.42,1.42,0,0,1-1.07.54l-.09,0a9,9,0,0,1-.8-3.71A9.6,9.6,0,0,1,41,35.14a9.6,9.6,0,0,1,9.81,9.36A9,9,0,0,1,50,48.21Z"></path><path id="Shape-6" data-name="Shape" class="cls-2" d="M42,43a2,2,0,1,0,2,2A2,2,0,0,0,42,43Zm0,2.86a.86.86,0,1,1,.86-.86A.87.87,0,0,1,42,45.86Z"></path><path id="Shape-7" data-name="Shape" class="cls-2" d="M35,41a2,2,0,1,0,2,2A2,2,0,0,0,35,41Zm0,2.86a.86.86,0,1,1,.86-.86A.87.87,0,0,1,35,43.86Z"></path></g></svg> 