<?xml version="1.0" encoding="UTF-8"?> <svg xmlns="http://www.w3.org/2000/svg" id="Layer_1" data-name="Layer 1" viewBox="0 0 80 80"><defs><style>.cls-1{fill:none;stroke-width:2px;}.cls-1,.cls-2{stroke:#1b54f8;stroke-miterlimit:10;}.cls-2{fill:#1b54f8;stroke-width:0.25px;}</style></defs><path id="Rectangle-Copy-6" class="cls-1" d="M40,1h0A39,39,0,0,1,79,40h0A39,39,0,0,1,40,79h0A39,39,0,0,1,1,40H1A39,39,0,0,1,40,1Z"></path><g id="noun_Grocery-Products_3215787" data-name="noun Grocery-Products 3215787"><path id="Shape" class="cls-2" d="M56,21.85l-7.53,7.41v-.62a1.79,1.79,0,0,0-1.8-1.77H46v-1a2.43,2.43,0,0,0-2.45-2.41H40.85a2.42,2.42,0,0,0-2.44,2.41v1h-.62A1.79,1.79,0,0,0,36,28.64V37h-.45a5.84,5.84,0,0,0-1.4-4.35,4.38,4.38,0,0,0-4.47-1.16,7,7,0,0,1-.78.13v-.44a3.47,3.47,0,0,0,.64.06,3.84,3.84,0,0,0,3.62-2.53.44.44,0,0,0,0-.37.49.49,0,0,0-.28-.25,3.84,3.84,0,0,0-2.92.17,3.71,3.71,0,0,0-1,.74V28a.49.49,0,1,0-1,0v3.56a5.29,5.29,0,0,1-.78-.13,4.39,4.39,0,0,0-4.47,1.15A5.92,5.92,0,0,0,21.25,37h-.6A1.64,1.64,0,0,0,19,38.57v4.06a1.64,1.64,0,0,0,1.65,1.62h.55L25.13,57.6A3.39,3.39,0,0,0,28.38,60h23a3.4,3.4,0,0,0,3.25-2.4l3.92-13.35h.56a1.64,1.64,0,0,0,1.65-1.62V38.57A1.64,1.64,0,0,0,59.13,37H58V33.27a1.78,1.78,0,0,0-1.8-1.76H54.48l5.66-5.57a2.86,2.86,0,0,0,0-4.09A3,3,0,0,0,56,21.85ZM30.35,29.08h0A2.78,2.78,0,0,1,32,28.83a2.87,2.87,0,0,1-2.87,1.36A2.74,2.74,0,0,1,30.35,29.08Zm9-3.23a1.45,1.45,0,0,1,1.46-1.45h2.73a1.46,1.46,0,0,1,1.47,1.45v1H39.39ZM37,28.64a.81.81,0,0,1,.82-.8h8.86a.81.81,0,0,1,.82.8v1.58L40.62,37H37Zm-13.58,4.6a3.4,3.4,0,0,1,3.5-.86,6.3,6.3,0,0,0,3,0,3.31,3.31,0,0,1,3.5.88A4.91,4.91,0,0,1,34.57,37H22.23A5,5,0,0,1,23.39,33.24Zm30.32,24.1A2.42,2.42,0,0,1,51.4,59h-23a2.4,2.4,0,0,1-2.31-1.7L22.22,44.25H57.55Zm5.42-19.42a.66.66,0,0,1,.67.65v4.06a.66.66,0,0,1-.67.65H20.65a.66.66,0,0,1-.67-.65V38.57a.66.66,0,0,1,.67-.65h19l-.1.09a2.87,2.87,0,0,0,0,4.09,3,3,0,0,0,4.16,0L48,37.92Zm-2.91-5.45a.81.81,0,0,1,.82.8V37H48.93l4.57-4.48Zm3.23-7.21L43,41.42a2,2,0,0,1-2.77,0,1.9,1.9,0,0,1,0-2.73L56.67,22.53a2,2,0,0,1,2.78,0A1.91,1.91,0,0,1,59.45,25.26Z"></path></g></svg> 