<?xml version="1.0" encoding="UTF-8"?> <svg xmlns="http://www.w3.org/2000/svg" id="Layer_1" data-name="Layer 1" viewBox="0 0 80 80"><defs><style>.cls-1{fill:none;stroke-width:2px;}.cls-1,.cls-2{stroke:#1b54f8;stroke-miterlimit:10;}.cls-2{fill:#1b54f8;stroke-width:0.25px;}</style></defs><path id="Rectangle-Copy-7" class="cls-1" d="M40,1h0A39,39,0,0,1,79,40h0A39,39,0,0,1,40,79h0A39,39,0,0,1,1,40H1A39,39,0,0,1,40,1Z"></path><g id="noun_foundation_3277124" data-name="noun foundation 3277124"><path id="Shape" class="cls-2" d="M57.49,21.73a6.51,6.51,0,0,0-6,0A4.14,4.14,0,0,0,49,25.48a18.5,18.5,0,0,0,1.6,7.1v4.28l.78,22.67a.48.48,0,0,0,.46.47h5.32a.47.47,0,0,0,.46-.47l.78-22.69V32.58a18.5,18.5,0,0,0,1.6-7.1A4.14,4.14,0,0,0,57.49,21.73Zm0,11.22v3.4h-6V33ZM56.72,59H52.28l-.75-21.69h5.94Zm.93-27H55V29.35a.46.46,0,1,0-.92,0V32H51.35a17.76,17.76,0,0,1-1.43-6.5,3.19,3.19,0,0,1,2-2.88,5.64,5.64,0,0,1,5.18,0,3.19,3.19,0,0,1,2,2.88A17.81,17.81,0,0,1,57.65,32Z"></path><path id="Shape-2" data-name="Shape" class="cls-2" d="M21,59.51a.48.48,0,0,0,.47.49H44.53a.48.48,0,0,0,.47-.49v-38a.48.48,0,0,0-.47-.49H21.47a.48.48,0,0,0-.47.49ZM21.93,22H44.07V59H21.93Z"></path><path id="Shape-3" data-name="Shape" class="cls-2" d="M28,25a4,4,0,1,0,4,4A4,4,0,0,0,28,25Zm0,7a3,3,0,1,1,3.05-3A3.06,3.06,0,0,1,28,32.05Z"></path><path id="Shape-4" data-name="Shape" class="cls-2" d="M38,25a4,4,0,1,0,4,4A4,4,0,0,0,38,25Zm0,7a3,3,0,1,1,3-3A3.06,3.06,0,0,1,38,32.05Z"></path><path id="Shape-5" data-name="Shape" class="cls-2" d="M28,37a4,4,0,1,0,4,4A4,4,0,0,0,28,37Zm0,7a3,3,0,1,1,3.05-3A3.06,3.06,0,0,1,28,44.05Z"></path><path id="Shape-6" data-name="Shape" class="cls-2" d="M38,37a4,4,0,1,0,4,4A4,4,0,0,0,38,37Zm0,7a3,3,0,1,1,3-3A3.06,3.06,0,0,1,38,44.05Z"></path><path id="Shape-7" data-name="Shape" class="cls-2" d="M28,48a4,4,0,1,0,4,4A4,4,0,0,0,28,48Zm0,7a3,3,0,1,1,3.05-3A3.06,3.06,0,0,1,28,55.05Z"></path><path id="Shape-8" data-name="Shape" class="cls-2" d="M38,48a4,4,0,1,0,4,4A4,4,0,0,0,38,48Zm0,7a3,3,0,1,1,3-3A3.06,3.06,0,0,1,38,55.05Z"></path></g></svg> 