<?xml version="1.0" encoding="UTF-8"?> <svg xmlns="http://www.w3.org/2000/svg" id="Layer_1" data-name="Layer 1" viewBox="0 0 80 80"><defs><style>.cls-1{fill:none;stroke-width:2px;}.cls-1,.cls-2{stroke:#1b54f8;stroke-miterlimit:10;}.cls-2{fill:#1b54f8;stroke-width:0.25px;}</style></defs><path id="Rectangle-Copy-8" class="cls-1" d="M40.19,1h0A39,39,0,0,1,79,40.19h0A39,39,0,0,1,39.81,79h0A39,39,0,0,1,1,39.81H1A39,39,0,0,1,40.19,1Z"></path><g id="noun_Car-Wash_1891950" data-name="noun Car-Wash 1891950"><path id="Shape" class="cls-2" d="M46.35,46,35.59,46a.58.58,0,0,0-.62.54l0,2.91a.59.59,0,0,0,.62.55L46.33,50a.58.58,0,0,0,.62-.54l0-2.92A.59.59,0,0,0,46.35,46ZM45.72,49l-9.53-.05V47.06l9.53,0V49Z"></path><path id="Shape-2" data-name="Shape" class="cls-2" d="M29.47,46A2.5,2.5,0,1,0,32,48.46,2.5,2.5,0,0,0,29.47,46Zm0,4a1.48,1.48,0,1,1,1.48-1.47A1.48,1.48,0,0,1,29.45,49.93Z"></path><path id="Shape-3" data-name="Shape" class="cls-2" d="M49,48.54a2.5,2.5,0,1,0,2.51-2.48A2.51,2.51,0,0,0,49,48.54Zm4,0a1.47,1.47,0,1,1-2.94,0,1.47,1.47,0,1,1,2.94,0Z"></path><path id="Shape-4" data-name="Shape" class="cls-2" d="M58.68,28A8.38,8.38,0,0,0,59,25.85a8.75,8.75,0,1,0-17.49-.08,8.66,8.66,0,0,0,1.35,4.69l-10.43-.05a3.79,3.79,0,0,0-3.69,3.07l-2,8.84a4.84,4.84,0,0,0-3.83,4.76l0,6.72h-.33a.58.58,0,0,0-.59.58l0,3.64a.59.59,0,0,0,.59.59h2.06v2.61a2.67,2.67,0,1,0,5.33,0V58.65l21.06.1v2.61a2.67,2.67,0,1,0,5.33,0v-2.6h2.07a.59.59,0,0,0,.59-.59l0-3.64a.59.59,0,0,0-.59-.59H58l0-6.72a4.84,4.84,0,0,0-3.79-4.79l-.45-2.29a6.61,6.61,0,0,0,3.5,1A6.68,6.68,0,0,0,58.68,28Zm-8.44-9.74a7.58,7.58,0,0,1,7.54,7.62,7.36,7.36,0,0,1-.28,2h-.11a6.67,6.67,0,0,0-6.59,5.52q-.31,0-.63,0a7.58,7.58,0,0,1,.07-15.16Zm-20.4,15.5a2.61,2.61,0,0,1,2.54-2.14l11.32.05a8.71,8.71,0,0,0,6.46,2.93l.54,0a6.56,6.56,0,0,0,1.69,4.4l.68,3.41-14.21-.07a4.3,4.3,0,0,0-8.45,0H28Zm7.83,8.55-6.06,0a3.13,3.13,0,0,1,6.06,0Zm-9,19a1.49,1.49,0,1,1-3,0V58.63h3v2.61Zm26.39.13a1.49,1.49,0,1,1-3,0v-2.6h3Zm2.67-3.77-34.68-.17V55l34.68.17ZM56.9,47.24l0,6.73L24,53.8l0-6.72a3.64,3.64,0,0,1,3.59-3.67l25.7.12A3.64,3.64,0,0,1,56.9,47.24ZM57.33,40a5.5,5.5,0,1,1,5.52-5.47A5.49,5.49,0,0,1,57.33,40Z"></path><path id="Path" class="cls-2" d="M56.41,31.08A3.38,3.38,0,0,0,53,34.43a.63.63,0,1,0,1.26,0,2.11,2.11,0,0,1,2.12-2.1.63.63,0,0,0,.63-.63A.63.63,0,0,0,56.41,31.08Z"></path><path id="Shape-5" data-name="Shape" class="cls-2" d="M23.54,30.92a6.5,6.5,0,1,0-6.46-6.53A6.51,6.51,0,0,0,23.54,30.92ZM23.6,19a5.39,5.39,0,1,1-5.41,5.36A5.4,5.4,0,0,1,23.6,19Z"></path><path id="Path-2" data-name="Path" class="cls-2" d="M20.69,24.91a.62.62,0,0,0,.62-.62,2.17,2.17,0,0,1,2.16-2.14.61.61,0,0,0,.62-.61.61.61,0,0,0-.61-.62,3.38,3.38,0,0,0-3.4,3.36A.62.62,0,0,0,20.69,24.91Z"></path><path id="Path-3" data-name="Path" class="cls-2" d="M45.62,26a.56.56,0,0,0,.56-.55,4.34,4.34,0,0,1,4.36-4.32.56.56,0,0,0,.56-.55.56.56,0,0,0-.55-.56,5.46,5.46,0,0,0-5.48,5.42A.56.56,0,0,0,45.62,26Z"></path><path id="Path-4" data-name="Path" class="cls-2" d="M23.09,39.33V38h1.32a.58.58,0,0,0,.59-.58.6.6,0,0,0-.58-.6H23.1V35.51a.59.59,0,1,0-1.18,0v1.32H20.6a.59.59,0,1,0,0,1.17h1.32v1.32a.58.58,0,0,0,.59.59A.58.58,0,0,0,23.09,39.33Z"></path><path id="Path-5" data-name="Path" class="cls-2" d="M34.67,23.06H36v1.32a.58.58,0,0,0,.58.59.6.6,0,0,0,.6-.58V23.07h1.32a.59.59,0,1,0,0-1.18H37.18V20.58a.59.59,0,1,0-1.17,0v1.32H34.68a.59.59,0,0,0-.59.59A.58.58,0,0,0,34.67,23.06Z"></path></g></svg> 