<?xml version="1.0" encoding="UTF-8"?> <svg xmlns="http://www.w3.org/2000/svg" width="80" height="80" viewBox="0 0 80 80"><g id="Group_6" data-name="Group 6" transform="translate(-905 -622)"><rect id="Rectangle_9" data-name="Rectangle 9" width="80" height="80" transform="translate(905 622)" fill="none" opacity="0"></rect><path id="Union_4" data-name="Union 4" d="M3.228,53.611A3.228,3.228,0,0,1,0,50.39V3.221A3.227,3.227,0,0,1,3.228,0H69.135a3.228,3.228,0,0,1,3.228,3.221V50.39a3.228,3.228,0,0,1-3.228,3.221ZM1.548,3.221V50.383a1.681,1.681,0,0,0,1.679,1.676H69.135a1.676,1.676,0,0,0,1.679-1.676V3.221a1.682,1.682,0,0,0-1.679-1.677H3.228A1.677,1.677,0,0,0,1.548,3.221ZM17.827,50.035A.546.546,0,0,1,17.664,50H4.288a.776.776,0,0,1-.774-.773V4.025a.776.776,0,0,1,.774-.773h62.6a.776.776,0,0,1,.774.773V49.232A.776.776,0,0,1,66.89,50H52.2a1.255,1.255,0,0,1-.163.031ZM52.81,39.014v9.454H66.117l.007-.008V4.8H5.063V48.452l11.976,0V35.633l-1.618-.417a2.719,2.719,0,1,1-.782-3.631l2.4-1.931V20.974a.83.83,0,0,1,.039-.232.55.55,0,0,1,.046-.093.482.482,0,0,1,.055-.115.829.829,0,0,1,.085-.085.408.408,0,0,1,.077-.085.932.932,0,0,1,.209-.116l13.423-4.78a.8.8,0,0,1,.271-.039h.077a.77.77,0,0,1,.132.031l.1.023c.024.008.07.031.07.031a.879.879,0,0,1,.116.07l.519.394V10.831a.785.785,0,0,1,.425-.688l5.465-2.772a.78.78,0,0,1,.79.054l4.916,3.36a.784.784,0,0,1,.332.641V22.787l1.851-.34a3.119,3.119,0,0,1,3.158-2.967,3.184,3.184,0,0,1,3.182,3.174,3.137,3.137,0,0,1-.828,2.117l5.867,8.743a2.464,2.464,0,0,1,.751-.123,2.626,2.626,0,1,1-2.028,4.279ZM32.026,48.458h4.118V40.572l-4.118-1.066Zm5.666,0h13.57V39.617l-5.124,2.07a.278.278,0,0,1,.007.077,2.329,2.329,0,0,1-4.652.185l-3.8-.981Zm-19.089,0H30.477V39.1L18.6,36.031Zm24.422-6.687a.789.789,0,1,0,.789-.787A.791.791,0,0,0,43.025,41.771Zm-5.341-9.392v7l4.2,1.081a2.323,2.323,0,0,1,3.693-.2l5.69-2.295h-.008V32.85l-7.834-2.032Zm-5.658,5.529,4.118,1.066V20.817l-4.118-3.1Zm-12.9-16.575-.527.185V34.44l11.875,3.066V17.294Zm25.065,3.02v5.075l8.035,2.077v.015a.777.777,0,0,1,.58.75v5.082l2.748-1.112a1.944,1.944,0,0,1-.023-.216,2.606,2.606,0,0,1,.6-1.645l-5.868-8.744a3.211,3.211,0,0,1-1.06.192,3.176,3.176,0,0,1-2.888-1.861ZM57.153,36.017a1.014,1.014,0,1,0,1.013-1.012A1.016,1.016,0,0,0,57.153,36.017ZM11.93,33.831a1.176,1.176,0,1,0,1.176-1.174A1.175,1.175,0,0,0,11.93,33.831Zm3.7-1.052a2.735,2.735,0,0,1,.2.942l1.223.317v-2.4ZM37.374,19.812a.782.782,0,0,1,.31.617V30.771l4.961-1.343V11.818l-4.2-2.874L33.813,11.3v5.831h-.007Zm10.2,2.835A1.633,1.633,0,1,0,49.2,21.017,1.628,1.628,0,0,0,47.569,22.647Zm.866,13.917V34.447a.774.774,0,0,1,1.548,0v2.117a.774.774,0,0,1-1.548,0Zm-12.292-4.78h0Zm32.2-2.664V24.493a.774.774,0,0,1,1.548,0v4.626a.774.774,0,0,1-1.548,0Zm-48.382-3.3V23.7a.774.774,0,0,1,1.548,0V25.82a.774.774,0,0,1-1.548,0Zm2.987-1.058V22.647a.775.775,0,0,1,1.549,0v2.116a.775.775,0,0,1-1.549,0ZM33.325,23.7V21.58a.775.775,0,0,1,1.549,0V23.7a.775.775,0,0,1-1.549,0ZM40.3,17.61V16.181a.774.774,0,0,1,1.548,0V17.61a.774.774,0,0,1-1.548,0Zm0-3.591V12.59a.774.774,0,0,1,1.548,0v1.429a.774.774,0,0,1-1.548,0Z" transform="translate(909.281 635.195)" fill="#1b54f8"></path></g></svg> 