<?xml version="1.0" encoding="UTF-8"?> <svg xmlns="http://www.w3.org/2000/svg" width="80" height="80" viewBox="0 0 80 80"><g id="Group_5" data-name="Group 5" transform="translate(-1001 -622)"><rect id="Rectangle_10" data-name="Rectangle 10" width="80" height="80" transform="translate(1001 622)" fill="none" opacity="0"></rect><path id="Union_3" data-name="Union 3" d="M18.59,49.208a16.4,16.4,0,1,1,16.4,16.4A16.421,16.421,0,0,1,18.59,49.208Zm2.187,0A14.216,14.216,0,1,0,34.992,34.992,14.232,14.232,0,0,0,20.777,49.208Zm6.561,5.467a1.094,1.094,0,0,1-.945-1.644l7.655-13.122a1.138,1.138,0,0,1,1.889,0l7.654,13.122a1.094,1.094,0,0,1-.945,1.644Zm1.9-2.187h11.5L34.992,42.63ZM37.179,16.4a16.4,16.4,0,1,1,16.4,16.4A16.421,16.421,0,0,1,37.179,16.4Zm2.187,0A14.216,14.216,0,1,0,53.582,2.187,14.232,14.232,0,0,0,39.367,16.4ZM0,16.4a16.4,16.4,0,1,1,16.4,16.4A16.421,16.421,0,0,1,0,16.4Zm2.187,0A14.216,14.216,0,1,0,16.4,2.187,14.233,14.233,0,0,0,2.187,16.4Zm13.442,9.521L6.881,17.176a1.092,1.092,0,0,1,0-1.546l8.748-8.747a1.091,1.091,0,0,1,1.546,0l8.748,8.747a1.092,1.092,0,0,1,0,1.546l-8.748,8.748a1.093,1.093,0,0,1-1.546,0ZM9.2,16.4l7.2,7.2,7.2-7.2L16.4,9.2Zm43.774,8.565-6.561-4.374a1.1,1.1,0,0,1-.486-.911v-6.56a1.1,1.1,0,0,1,.486-.911l6.561-4.374a1.091,1.091,0,0,1,1.212,0l6.561,4.374a1.1,1.1,0,0,1,.488.911v6.56a1.1,1.1,0,0,1-.487.911l-6.56,4.374a1.1,1.1,0,0,1-1.214,0Zm-4.861-11.26V19.1l5.468,3.645L59.049,19.1V13.707l-5.467-3.645Z" transform="translate(1006.23 629.195)" fill="#1b54f8" stroke="#fff" stroke-width="0.3"></path></g></svg> 