<?xml version="1.0" encoding="UTF-8"?> <svg xmlns="http://www.w3.org/2000/svg" width="80" height="80" viewBox="0 0 80 80"><g id="Smart_Contract_Development" data-name="Smart Contract Development" transform="translate(0 0.197)"><rect id="Rectangle_22" data-name="Rectangle 22" width="80" height="80" transform="translate(0 -0.197)" fill="#fff" opacity="0"></rect><path id="Union_5" data-name="Union 5" d="M16.587,60.866V33.373H12.872V48.036A3.359,3.359,0,0,1,10.8,51.143l-1.662.695c0,.075.023.145.023.22a4.04,4.04,0,1,1-1.052-2.68l1.664-.695a.7.7,0,0,0,.429-.647V33.373H7.754a4,4,0,1,1,0-2.667h2.451V16.042a.7.7,0,0,0-.428-.645L8.113,14.7a3.984,3.984,0,1,1,1.051-2.679c0,.074-.018.144-.023.218l1.663.695a3.358,3.358,0,0,1,2.067,3.107V30.705h3.715V3.128A3.132,3.132,0,0,1,19.715,0H50.576a1.482,1.482,0,0,1,.937.386C51.576.449,62.664,11.529,63.3,12.17a1.456,1.456,0,0,1,.386.938V60.866A3.137,3.137,0,0,1,60.55,64H19.721A3.138,3.138,0,0,1,16.587,60.866Zm2.667-57.74v57.74a.468.468,0,0,0,.467.467H60.55a.468.468,0,0,0,.468-.467V14.523l-8.069.488h-.005a3.644,3.644,0,0,1-3.7-3.623V2.667H19.715A.461.461,0,0,0,19.254,3.127ZM3.83,52.056a1.333,1.333,0,1,0,2.562-.513v0a.008.008,0,0,1,0,0,1.335,1.335,0,0,0-1.228-.813A1.319,1.319,0,0,0,3.83,52.056ZM2.667,32.038A1.333,1.333,0,1,0,4,30.7,1.319,1.319,0,0,0,2.667,32.038ZM3.83,12.022a1.333,1.333,0,1,0,1.333-1.334A1.319,1.319,0,0,0,3.83,12.022Zm48.08-.635a.962.962,0,0,0,.959.96l6.445-.392-7.4-7.4ZM28.4,57.332a1.338,1.338,0,0,1-.629-.157l-4.3-2.3h0a1.333,1.333,0,0,1-.014-2.345l4.266-2.342a1.336,1.336,0,0,1,.637-.165c14.39-.062,21.012-.1,23.774-.112l1.731,0a3.613,3.613,0,0,1,2.559,1.053,3.664,3.664,0,0,1,.039,5.155c-1.091,1.093-.91,1.222-12.963,1.222C39.77,57.344,34.869,57.332,28.4,57.332Zm.311-4.642-1.813.994,1.832.98,20.358-.088V52.6Zm23.045-.1v1.975l2.112-.01a.991.991,0,0,0,.68-1.695,1.319,1.319,0,0,0-.7-.28Zm.379-2.677C49.92,49.906,56.986,49.883,52.134,49.912ZM25.327,45.933a1.333,1.333,0,0,1,0-2.667H54.945a1.333,1.333,0,0,1,0,2.667Zm0-6.219a1.333,1.333,0,0,1,0-2.667H54.945a1.333,1.333,0,0,1,0,2.667Zm0-6.217a1.333,1.333,0,0,1,0-2.667H54.945a1.333,1.333,0,0,1,0,2.667Zm0-6.217a1.333,1.333,0,0,1,0-2.667H54.945a1.333,1.333,0,0,1,0,2.667Zm0-6.219a1.333,1.333,0,0,1,0-2.667h8.3a1.333,1.333,0,1,1,0,2.667Zm15.208-4.639-3.005-1.76a1.332,1.332,0,1,1,1.345-2.3l1.894,1.108L44.223,8a1.334,1.334,0,0,1,2.255,1.425l-4.143,6.557a1.336,1.336,0,0,1-1.13.621A1.32,1.32,0,0,1,40.535,16.422ZM25.327,14.844a1.333,1.333,0,0,1,0-2.667h8.3a1.333,1.333,0,1,1,0,2.667Zm0-6.218a1.333,1.333,0,0,1,0-2.667h8.3a1.333,1.333,0,1,1,0,2.667ZM51.513.386h0Z" transform="translate(8.376 8)" fill="#1b54f8" stroke="#fff" stroke-width="0.8"></path></g></svg> 