<?xml version="1.0" encoding="UTF-8"?> <svg xmlns="http://www.w3.org/2000/svg" width="80" height="80" viewBox="0 0 80 80"><g id="Group_3" data-name="Group 3" transform="translate(-1221 -622)"><rect id="Rectangle_12" data-name="Rectangle 12" width="80" height="80" transform="translate(1221 622)" fill="none" opacity="0"></rect><path id="Union_1" data-name="Union 1" d="M37.1,64.854a4.649,4.649,0,0,1-2.1-3.89,21.588,21.588,0,0,1,.911-6.207l1.481-4.936a5.466,5.466,0,0,1,1.086-1.968A13.916,13.916,0,0,1,16.7,37.279l-.013-.182a5.46,5.46,0,0,1-4.657-5.386v-6.56a5.465,5.465,0,0,1,2.435-4.544l-2.041-6.124A7.681,7.681,0,0,1,19.707,4.374h1.257a6.329,6.329,0,0,0,4.507-1.867A8.5,8.5,0,0,1,31.524,0h5.654a1.094,1.094,0,0,1,.985,1.583l-.61,1.209a1.094,1.094,0,0,0,.978,1.583h3a7.68,7.68,0,0,1,7.285,10.109l-2.041,6.124a5.463,5.463,0,0,1,2.435,4.544v6.56A5.458,5.458,0,0,1,44.55,37.1l-.012.181a13.912,13.912,0,0,1-4.383,9.235,5.473,5.473,0,0,1,2.465-.586H53.607a5.434,5.434,0,0,1,5.237,3.9l1.481,4.935a21.571,21.571,0,0,1,.911,6.205,4.645,4.645,0,0,1-9.227.765l-.3-1.764a1.1,1.1,0,0,0-1.079-.915H45.593a1.094,1.094,0,0,0-1.078.916l-.3,1.765A4.645,4.645,0,0,1,37.1,64.854Zm3.561-16.1a3.26,3.26,0,0,0-1.182,1.694L38,55.387a19.379,19.379,0,0,0-.819,5.577,2.458,2.458,0,0,0,4.884.4h0l.294-1.766a3.27,3.27,0,0,1,3.236-2.741h5.043A3.27,3.27,0,0,1,53.872,59.6h0l.294,1.764a2.461,2.461,0,0,0,4.887-.4,19.408,19.408,0,0,0-.819-5.577l-1.481-4.935a3.257,3.257,0,0,0-3.144-2.338H42.6A3.256,3.256,0,0,0,40.658,48.757ZM24.98,46.668A11.762,11.762,0,0,0,42.35,37.178H35.9a3.251,3.251,0,0,1-2.32-.962l-.906-.906a1.1,1.1,0,0,0-.775-.32h-2.56a1.1,1.1,0,0,0-.774.32l-.906.906a3.251,3.251,0,0,1-2.32.962H18.886A11.762,11.762,0,0,0,24.98,46.668Zm9.238-12.9.906.906a1.1,1.1,0,0,0,.775.32h7.841a3.28,3.28,0,0,0,3.281-3.28V25.15a3.28,3.28,0,0,0-3.281-3.28H17.5a3.28,3.28,0,0,0-3.28,3.28v6.561a3.28,3.28,0,0,0,3.28,3.28h7.842a1.1,1.1,0,0,0,.774-.32l.906-.906a3.254,3.254,0,0,1,2.32-.962h2.571A3.254,3.254,0,0,1,34.218,33.766ZM19.185,18.094A3.247,3.247,0,0,0,18,19.683H43.234A3.242,3.242,0,0,0,40.153,17.5h-5.6a1.09,1.09,0,0,0-.6.183h0l-1.517,1.01a3.265,3.265,0,0,1-3.64,0l-1.516-1.01a1.085,1.085,0,0,0-.605-.183h-5.62A3.246,3.246,0,0,0,19.185,18.094Zm23.954-1.9a5.428,5.428,0,0,1,2.008,2.372l1.592-4.772a5.492,5.492,0,0,0-5.21-7.229h-3a3.281,3.281,0,0,1-3.093-4.374H31.524a6.331,6.331,0,0,0-4.507,1.867A8.5,8.5,0,0,1,20.963,6.56H19.707a5.492,5.492,0,0,0-5.2,7.229l1.591,4.772a5.427,5.427,0,0,1,4.989-3.253h5.6a3.267,3.267,0,0,1,1.814.547l1.51,1.01a1.093,1.093,0,0,0,1.213,0l1.517-1.01a3.268,3.268,0,0,1,1.819-.547h5.621A5.427,5.427,0,0,1,43.139,16.19ZM5.467,65.609a1.092,1.092,0,0,1-1.093-1.093,18.575,18.575,0,0,1,13.942-18,1.093,1.093,0,0,1,.547,2.116A16.393,16.393,0,0,0,6.6,63.422H32.805a1.094,1.094,0,0,1,0,2.187Zm47.02-10.934a1.094,1.094,0,1,1,1.094,1.093A1.093,1.093,0,0,1,52.488,54.675Zm-10.934,0V53.581H40.459a1.094,1.094,0,0,1,0-2.187h1.094V50.3a1.093,1.093,0,1,1,2.186,0v1.093h1.094a1.094,1.094,0,0,1,0,2.187H43.739v1.094a1.093,1.093,0,1,1-2.186,0Zm13.122-2.187a1.094,1.094,0,1,1,1.094,1.093A1.093,1.093,0,0,1,54.675,52.488Zm-4.374,0a1.094,1.094,0,1,1,1.094,1.093A1.094,1.094,0,0,1,50.3,52.488ZM52.488,50.3a1.094,1.094,0,1,1,1.094,1.093A1.093,1.093,0,0,1,52.488,50.3ZM7.974,46.7l-3.28-3.28a1.094,1.094,0,0,1,0-1.546l3.28-3.281a1.1,1.1,0,0,1,1.546,0L12.8,41.872a1.1,1.1,0,0,1,0,1.546L9.521,46.7a1.094,1.094,0,0,1-1.546,0Zm-.962-4.053L8.747,44.38l1.735-1.735L8.747,40.911Zm18.377.684A1.094,1.094,0,1,1,27.1,41.962a4.507,4.507,0,0,0,7.041,0,1.094,1.094,0,1,1,1.708,1.367,6.693,6.693,0,0,1-10.456,0Zm28.512.09-3.281-3.281a1.094,1.094,0,0,1,0-1.546l3.281-3.28a1.094,1.094,0,0,1,1.546,0l3.28,3.28a1.094,1.094,0,0,1,0,1.546l-3.28,3.281a1.094,1.094,0,0,1-1.546,0Zm-.962-4.054L54.675,41.1l1.734-1.735-1.734-1.734ZM16.4,32.8V31.711a1.094,1.094,0,1,1,2.187,0V32.8a1.094,1.094,0,1,1-2.187,0ZM.961,29.656a3.281,3.281,0,1,1,2.319.961A3.281,3.281,0,0,1,.961,29.656Zm1.546-3.093a1.092,1.092,0,1,0,.773-.32A1.094,1.094,0,0,0,2.507,26.564ZM16.722,29.2a1.093,1.093,0,0,1-.32-.773V24.056a1.094,1.094,0,0,1,2.187,0V28.43a1.093,1.093,0,0,1-1.867.773ZM60.01,26.376a3.281,3.281,0,1,1,2.319.961A3.281,3.281,0,0,1,60.01,26.376Zm1.546-3.093a1.1,1.1,0,1,0,.774-.32A1.094,1.094,0,0,0,61.556,23.283ZM5.787,14.989l-3.28-3.281a1.094,1.094,0,0,1,0-1.546l3.28-3.28a1.094,1.094,0,0,1,1.546,0l3.281,3.28a1.094,1.094,0,0,1,0,1.546L7.334,14.989a1.094,1.094,0,0,1-1.546,0Zm-.961-4.054L6.56,12.669,8.3,10.934,6.56,9.2ZM53.9,12.8,50.621,9.521a1.094,1.094,0,0,1,0-1.546L53.9,4.694a1.094,1.094,0,0,1,1.546,0l3.28,3.28a1.094,1.094,0,0,1,0,1.546L55.448,12.8a1.094,1.094,0,0,1-1.546,0ZM52.94,8.747l1.735,1.735,1.734-1.735L54.675,7.014Z" transform="translate(1228.365 629.195)" fill="#1b54f8" stroke="#fff" stroke-width="0.3"></path></g></svg> 