<?xml version="1.0" encoding="UTF-8"?> <svg xmlns="http://www.w3.org/2000/svg" width="80" height="80" viewBox="0 0 80 80"><g id="Group_7" data-name="Group 7" transform="translate(-790 -622)"><rect id="Rectangle_8" data-name="Rectangle 8" width="80" height="80" transform="translate(790 622)" fill="none" opacity="0"></rect><path id="Union_8" data-name="Union 8" d="M55.28,65.495l-8.748-4.374a1.092,1.092,0,0,1-.6-.977V51.4a1.093,1.093,0,0,1,.6-.978l3-1.5-6.468-6.278a14.19,14.19,0,0,1-20.507,0h0L16.084,48.92l3,1.5a1.093,1.093,0,0,1,.6.978v8.748a1.092,1.092,0,0,1-.6.977l-8.748,4.374a1.088,1.088,0,0,1-.978,0L.6,61.121a1.093,1.093,0,0,1-.6-.977V51.4a1.094,1.094,0,0,1,.6-.978l8.748-4.374a1.094,1.094,0,0,1,.978,0l3.679,1.84,7.148-6.937a14.187,14.187,0,0,1,1.51-18.1l-6.427-6.238-5.91,2.956a1.094,1.094,0,0,1-.978,0L.6,15.194a1.094,1.094,0,0,1-.6-.978V5.468A1.092,1.092,0,0,1,.6,4.49L9.353.116a1.088,1.088,0,0,1,.978,0L19.079,4.49a1.092,1.092,0,0,1,.6.977v8.748a1.1,1.1,0,0,1-.6.978l-.765.383,6.007,5.83a14.19,14.19,0,0,1,16.969,0l6.007-5.83-.765-.383a1.094,1.094,0,0,1-.6-.978V5.468a1.092,1.092,0,0,1,.6-.977L55.28.116a1.088,1.088,0,0,1,.978,0L65.006,4.49a1.092,1.092,0,0,1,.6.977v8.748a1.094,1.094,0,0,1-.6.978l-8.748,4.374a1.094,1.094,0,0,1-.978,0l-5.91-2.956L42.943,22.85a14.187,14.187,0,0,1,1.51,18.1L51.6,47.883l3.679-1.84a1.094,1.094,0,0,1,.978,0l8.748,4.374a1.094,1.094,0,0,1,.6.978v8.748a1.093,1.093,0,0,1-.6.977l-8.748,4.374a1.089,1.089,0,0,1-.978,0Zm-44.345-9.05v6.3l6.561-3.28v-6.3ZM2.187,59.468l6.561,3.28v-6.3l-6.561-3.28Zm54.676-3.022v6.3l6.561-3.279v-6.3Zm-8.749,3.021,6.561,3.28v-6.3l-6.561-3.28ZM49.466,51.4l6.3,3.152,6.3-3.152-6.3-3.152Zm-45.927,0,6.3,3.151,6.3-3.151-6.3-3.152ZM26.244,39.057l-2.125,2.062a12.009,12.009,0,0,0,17.37,0l-2.123-2.061,1.524-1.57L42.859,39.4h0a12.029,12.029,0,1,0-20.109,0l1.969-1.912ZM56.863,10.518v6.3l6.561-3.281v-6.3Zm-4.706,3.389L51.032,15l3.643,1.822v-6.3l-6.561-3.28v6.3l.845.422,1.674-1.625ZM10.935,10.517v6.3L14.579,15l-1.125-1.092,1.523-1.57,1.674,1.625.845-.423v-6.3ZM2.187,13.54,8.748,16.82v-6.3L2.187,7.237ZM49.466,5.468l6.3,3.151,6.3-3.151-6.3-3.152Zm-45.927,0,6.3,3.152,6.3-3.152-6.3-3.152ZM8.748,43.74V21.87h2.187V43.74ZM21.87,9.842V7.655H43.74V9.842Z" transform="translate(797.035 629.195)" fill="#1b54f8" stroke="#fff" stroke-width="0.5"></path><path id="Path_123" data-name="Path 123" d="M525,192.5h2.187v21.87H525Z" transform="translate(326.71 458.565)" fill="#1b54f8" stroke="#fff" stroke-width="0.5"></path><path id="Path_125" data-name="Path 125" d="M262.5,463.75h21.87v2.187H262.5Z" transform="translate(556.405 221.214)" fill="#1b54f8" stroke="#fff" stroke-width="0.5"></path></g></svg> 