<?xml version="1.0" encoding="UTF-8"?> <svg xmlns="http://www.w3.org/2000/svg" width="80" height="80" viewBox="0 0 80 80"><g id="Group_2" data-name="Group 2" transform="translate(0.104)"><g id="Rectangle_6" data-name="Rectangle 6" transform="translate(-0.104)" fill="#fff" stroke="#707070" stroke-width="1" opacity="0"><rect width="80" height="80" stroke="none"></rect><rect x="0.5" y="0.5" width="79" height="79" fill="none"></rect></g><path id="Union_5" data-name="Union 5" d="M37.742,51.371a13.621,13.621,0,0,1,6.4-11.532h-8.5V59.758A5.248,5.248,0,0,1,30.4,65H5.242A5.248,5.248,0,0,1,0,59.758V5.242A5.248,5.248,0,0,1,5.242,0H30.4a5.248,5.248,0,0,1,5.242,5.242v5.242H61.855A3.149,3.149,0,0,1,65,13.629V36.694a3.149,3.149,0,0,1-3.145,3.145H58.6A13.621,13.621,0,1,1,37.742,51.371Zm2.1,0A11.532,11.532,0,1,0,51.371,39.839,11.545,11.545,0,0,0,39.839,51.371ZM2.1,59.758A3.149,3.149,0,0,0,5.242,62.9H30.4a3.149,3.149,0,0,0,3.145-3.145V56.613H2.1Zm0-5.242H33.548V39.839H28.306a3.149,3.149,0,0,1-3.145-3.145V13.629a3.149,3.149,0,0,1,3.145-3.145h5.242v-2.1H2.1ZM27.258,36.694a1.05,1.05,0,0,0,1.048,1.048H61.855A1.049,1.049,0,0,0,62.9,36.694V23.065H27.258Zm0-15.726H62.9V16.774H27.258Zm0-7.339v1.048H62.9V13.629a1.049,1.049,0,0,0-1.048-1.048H28.306A1.049,1.049,0,0,0,27.258,13.629ZM2.1,5.242V6.291H33.548V5.242A3.149,3.149,0,0,0,30.4,2.1H5.242A3.149,3.149,0,0,0,2.1,5.242ZM50.323,60.806V58.561a4.187,4.187,0,0,1-3.145-4.044h2.1a2.1,2.1,0,1,0,2.1-2.1,4.185,4.185,0,0,1-1.048-8.238V41.935h2.1v2.246a4.188,4.188,0,0,1,3.145,4.045h-2.1a2.1,2.1,0,1,0-2.1,2.1,4.185,4.185,0,0,1,1.048,8.238v2.246Zm-35.645,0v-2.1h6.291v2.1Zm44.032-8.387v-2.1h2.1v2.1Zm-16.774,0v-2.1h2.1v2.1ZM6.291,32.5A12.6,12.6,0,0,1,18.871,19.919v2.1a10.484,10.484,0,1,0,0,20.967v2.1A12.6,12.6,0,0,1,6.291,32.5Zm4.193,0a8.4,8.4,0,0,1,8.387-8.387v2.1a6.291,6.291,0,0,0,0,12.581v2.1A8.4,8.4,0,0,1,10.484,32.5Zm4.194,0a4.194,4.194,0,1,1,4.194,4.194A4.2,4.2,0,0,1,14.677,32.5Zm2.1,0a2.1,2.1,0,1,0,2.1-2.1A2.1,2.1,0,0,0,16.774,32.5Zm37.742,2.564a4.136,4.136,0,0,1-2.1.581,4.194,4.194,0,0,1,0-8.387,4.136,4.136,0,0,1,2.1.581,4.134,4.134,0,0,1,2.1-.581,4.194,4.194,0,0,1,0,8.387A4.133,4.133,0,0,1,54.516,35.064Zm.7-5.163a2.1,2.1,0,0,0,1.395,3.647A2.1,2.1,0,1,0,55.218,29.9Zm-4.9,1.55a2.1,2.1,0,0,0,2.1,2.1,2.028,2.028,0,0,0,.532-.071,4.125,4.125,0,0,1,0-4.051,2.028,2.028,0,0,0-.532-.071A2.1,2.1,0,0,0,50.323,31.452ZM29.355,35.645v-2.1H44.032v2.1Zm12.581-4.194v-2.1h2.1v2.1Zm-6.29,0v-2.1h2.1v2.1Zm-6.291,0v-2.1h2.1v2.1Z" transform="translate(7.896 7)" fill="#1b54f8" stroke="#fff" stroke-width="0.5"></path></g></svg> 