<?xml version="1.0" encoding="UTF-8"?> <svg xmlns="http://www.w3.org/2000/svg" width="70" height="70" viewBox="0 0 70 70"><g id="Sovereignty" transform="translate(-760 -1936)"><rect id="Rectangle_3" data-name="Rectangle 3" width="70" height="70" transform="translate(760 1936)" fill="none"></rect><g id="Group_76" data-name="Group 76" transform="translate(-470.994 -248)"><path id="Path_100" data-name="Path 100" d="M61.063,21.29a3.8,3.8,0,0,0-2.733,1.165l-.023-.025a3.794,3.794,0,0,0-5.446.025l-.023-.025a3.793,3.793,0,0,0-5.446.025l-.023-.025a3.783,3.783,0,0,0-2.713-1.14,3.854,3.854,0,0,0-3.828,3.87v3.386c-2.019,1.038-2.82,3.359-3.415,5.093l-.186.538a6.031,6.031,0,0,0,.856,4.95l3.468,5.846a3.281,3.281,0,0,1,.372,1.409v14.6l2.187-4.655V46.382a5.356,5.356,0,0,0-.7-2.56s-3.508-5.912-3.529-5.94a3.848,3.848,0,0,1-.592-2.976c.064-.179.128-.366.193-.556.537-1.564,1.143-3.328,2.47-3.921H53.4s0,2.363.01,2.41a1.182,1.182,0,0,1-.284.793,2.931,2.931,0,0,1-2.2.65H45.489a1.091,1.091,0,0,0-.093,2.178l1.065.01a1.1,1.1,0,0,0,.225.164,24.1,24.1,0,0,1,5.127,3.789v2.555a1.094,1.094,0,0,0,2.188,0V39.969a1.092,1.092,0,0,0-.3-.751,25.441,25.441,0,0,0-3.063-2.65,3.74,3.74,0,0,0,.5-.106,6.044,6.044,0,0,0,2.378-.482,3.763,3.763,0,0,0,2.076.623h0a3.794,3.794,0,0,0,2.734-1.167A3.793,3.793,0,0,0,61.063,36.6h0a3.777,3.777,0,0,0,1.64-.378v2.622a2.735,2.735,0,0,1-.443,1.3l-1.52,1.992a4.68,4.68,0,0,0-.771,2.629v1.022a3.274,3.274,0,0,1,2.187,1.43V44.77a2.672,2.672,0,0,1,.324-1.3L64,41.475a4.829,4.829,0,0,0,.89-2.629V25.16a3.867,3.867,0,0,0-1.115-2.731A3.782,3.782,0,0,0,61.063,21.29ZM43.015,28.241V25.16a1.641,1.641,0,1,1,3.281,0v3.081Zm5.469,0V25.16a1.641,1.641,0,1,1,3.281,0v3.081Zm7.11,6.174a1.6,1.6,0,0,1-.357-.043,3.423,3.423,0,0,0,.348-1.726V29.335a1.094,1.094,0,0,0-1.094-1.094h-.538V25.16a1.641,1.641,0,1,1,3.281,0v7.573A1.664,1.664,0,0,1,55.594,34.415Zm5.469,0a1.664,1.664,0,0,1-1.641-1.682V25.16a1.664,1.664,0,0,1,1.64-1.683A1.691,1.691,0,0,1,62.7,25.16v7.573a1.664,1.664,0,0,1-1.641,1.682Z" transform="translate(1214.294 2174.353)" fill="#1a54f8"></path><path id="Path_101" data-name="Path 101" d="M64.412,70H56.157a1.1,1.1,0,0,0-.99.629L48.108,85.652a1.105,1.105,0,0,0,1,1.559l4.6-.022-4.548,13.079a1.094,1.094,0,0,0,1.912,1.011l13.72-18.53A1.1,1.1,0,0,0,63.912,81H59.448l5.888-9.324A1.1,1.1,0,0,0,64.412,70ZM56.539,81.514a1.1,1.1,0,0,0,.925,1.678h4.277L53.58,94.212l2.7-7.765a1.106,1.106,0,0,0-1.039-1.454l-4.418.022,6.027-12.825h5.575Z" transform="translate(1209.305 2152.279)" fill="#1a54f8"></path><path id="Path_103" data-name="Path 103" d="M63.094,6.562a1.094,1.094,0,0,0,1.094-1.094V1.094a1.094,1.094,0,1,0-2.187,0V5.469a1.094,1.094,0,0,0,1.094,1.094Z" transform="translate(1202.965 2184)" fill="#1a54f8"></path><path id="Path_104" data-name="Path 104" d="M48.361,8.732a1.107,1.107,0,0,0,1.432.586,1.094,1.094,0,0,0,.586-1.432L49.353,5.442a1.094,1.094,0,1,0-2.017.846Z" transform="translate(1209.649 2181.838)" fill="#1a54f8"></path><path id="Path_105" data-name="Path 105" d="M30.363,22.441l-2.476-1.013a1.093,1.093,0,0,0-.829,2.023l1.432.586c.784.321,2,.985,2.47-.17A1.093,1.093,0,0,0,30.363,22.441Z" transform="translate(1219.107 2174.327)" fill="#1a54f8"></path><path id="Path_106" data-name="Path 106" d="M36.075,12.671A1.094,1.094,0,1,0,37.856,11.4L35.049,7.466a1.094,1.094,0,1,0-1.781,1.271Z" transform="translate(1216.077 2180.825)" fill="#1a54f8"></path><path id="Path_107" data-name="Path 107" d="M21.087,36.169l4.8.011h0a1.094,1.094,0,0,0,0-2.187l-4.8-.011h0a1.094,1.094,0,0,0,0,2.187Z" transform="translate(1222 2168.601)" fill="#1a54f8"></path><path id="Path_108" data-name="Path 108" d="M75.546,9.318a1.105,1.105,0,0,0,1.432-.586L78,6.288a1.094,1.094,0,1,0-2.017-.846L74.961,7.886a1.094,1.094,0,0,0,.586,1.432Z" transform="translate(1197.131 2181.838)" fill="#1a54f8"></path><path id="Path_109" data-name="Path 109" d="M94.6,24.465l2.476-1.013a1.093,1.093,0,1,0-.829-2.023l-2.476,1.013a1.093,1.093,0,0,0-.6,1.426A1.106,1.106,0,0,0,94.6,24.465Z" transform="translate(1188.876 2174.327)" fill="#1a54f8"></path><path id="Path_110" data-name="Path 110" d="M90.338,7.211a1.093,1.093,0,0,0-1.526.255L86.006,11.4a1.094,1.094,0,1,0,1.781,1.272l2.807-3.934a1.094,1.094,0,0,0-.255-1.526Z" transform="translate(1192.18 2180.825)" fill="#1a54f8"></path><path id="Path_111" data-name="Path 111" d="M95.23,35.089a1.094,1.094,0,0,0,1.094,1.091h0l4.8-.011a1.094,1.094,0,0,0,0-2.187h0l-4.8.011A1.094,1.094,0,0,0,95.23,35.089Z" transform="translate(1187.907 2168.601)" fill="#1a54f8"></path></g></g></svg> 