<?xml version="1.0" encoding="UTF-8"?> <svg xmlns="http://www.w3.org/2000/svg" width="80" height="80" viewBox="0 0 80 80"><g id="Group_10" data-name="Group 10" transform="translate(-465 -622)"><rect id="Rectangle_5" data-name="Rectangle 5" width="80" height="80" transform="translate(465 622)" fill="none" opacity="0"></rect><path id="Path_33" data-name="Path 33" d="M149.153,39.3a5.561,5.561,0,0,0-1.052-.361V26.683a5.629,5.629,0,0,0,1.054-.361,5.581,5.581,0,0,0,2.691-7.418,5.6,5.6,0,0,0-5.057-3.218,5.428,5.428,0,0,0-3.459,1.223L127.617,6.571a5.532,5.532,0,0,0,.1-.983,5.582,5.582,0,0,0-11.165,0,5.489,5.489,0,0,0,.1.98L100.939,16.906a5.58,5.58,0,1,0-4.775,9.775V38.943a5.576,5.576,0,0,0,1.315,11,5.552,5.552,0,0,0,2.367-.529,5.5,5.5,0,0,0,1.079-.682l15.724,10.323a5.649,5.649,0,0,0-.1.983,5.583,5.583,0,0,0,11.166,0,5.524,5.524,0,0,0-.1-.984L143.339,48.73a5.6,5.6,0,0,0,1.079.682,5.529,5.529,0,0,0,2.367.529h0A5.581,5.581,0,0,0,149.153,39.3Zm-6.71,1.569-6.942-3.25V28l6.943-3.252a5.6,5.6,0,0,0,3.033,1.928v12.27a5.6,5.6,0,0,0-3.034,1.926Zm-40.623,0a5.609,5.609,0,0,0-3.033-1.926V26.679a5.6,5.6,0,0,0,3.033-1.928L108.763,28v9.623Zm20.146-20.557a1.446,1.446,0,0,0,.165.033,1.175,1.175,0,0,0,.168-.034l9.639,6.923-9.808,7.046-9.808-7.046ZM111.388,29.8l9.431,6.778v7.916l-9.431-6.781Zm12.054,6.778,9.432-6.778v7.91l-9.432,6.783Zm23.345-18.267a2.957,2.957,0,0,1,2.781,3.965,2.93,2.93,0,0,1-1.53,1.671,3.018,3.018,0,0,1-3.929-1.421,2.964,2.964,0,0,1,1.43-3.934,2.9,2.9,0,0,1,1.248-.281Zm-5.065.684a5.571,5.571,0,0,0-.39,3.382l-7.065,3.308-10.822-7.774s.008-6.182,0-6.91a10.28,10.28,0,0,0,3.08-2.005ZM122.132,2.631a2.958,2.958,0,1,1-2.957,2.957,2.961,2.961,0,0,1,2.957-2.957ZM120.82,11v6.91l-10.825,7.772-7.064-3.307a5.558,5.558,0,0,0-.387-3.382l15.2-10A11.244,11.244,0,0,0,120.82,11ZM94.7,22.275a2.939,2.939,0,0,1,.1-2.261,2.971,2.971,0,0,1,2.681-1.7,2.923,2.923,0,0,1,1.252.281,2.961,2.961,0,0,1,1.423,3.933h0a2.963,2.963,0,0,1-2.652,1.7c-.009,0-.017-.005-.026-.005s-.018.005-.027.005A2.957,2.957,0,0,1,94.7,22.275Zm.1,23.337a2.957,2.957,0,0,1,1.424-3.929,2.921,2.921,0,0,1,1.25-.281,2.957,2.957,0,0,1,1.257,5.635A3.016,3.016,0,0,1,94.8,45.612Zm7.737,1.037a5.564,5.564,0,0,0,.4-3.4L110,39.943l10.821,7.781v6.905a5.562,5.562,0,0,0-3.078,2ZM122.13,63a2.959,2.959,0,1,1,2.96-2.958A2.96,2.96,0,0,1,122.13,63Zm1.311-8.37v-6.9l10.824-7.781,7.065,3.308a5.554,5.554,0,0,0,.4,3.4l-15.2,9.983a5.578,5.578,0,0,0-3.083-2.005Zm26.024-9.014a3.02,3.02,0,0,1-3.933,1.425,2.957,2.957,0,0,1,1.257-5.635,2.91,2.91,0,0,1,1.249.281,2.958,2.958,0,0,1,1.426,3.929Z" transform="translate(382.609 629.493)" fill="#1b54f8" stroke="#fff" stroke-width="0.8"></path></g></svg> 