<?xml version="1.0" encoding="UTF-8"?> <svg xmlns="http://www.w3.org/2000/svg" width="80" height="80" viewBox="0 0 80 80"><g id="Group_9" data-name="Group 9" transform="translate(-578 -622)"><rect id="Rectangle_6" data-name="Rectangle 6" width="80" height="80" transform="translate(578 622)" fill="none" opacity="0"></rect><path id="Union_6" data-name="Union 6" d="M47.219,57.41H41.972a9.223,9.223,0,0,1-18.333,0H18.393A9.225,9.225,0,1,1,8.2,47.219V41.972a9.223,9.223,0,0,1,0-18.333V18.393A9.225,9.225,0,1,1,18.393,8.2h5.247a9.223,9.223,0,0,1,18.333,0h5.247A9.225,9.225,0,1,1,57.41,18.393v5.247a9.223,9.223,0,0,1,0,18.333v5.247A9.224,9.224,0,1,1,47.219,57.41Zm1.989-1.026a7.176,7.176,0,1,0,7.176-7.176A7.185,7.185,0,0,0,49.207,56.384Zm-23.579,0A7.176,7.176,0,1,0,32.8,49.208,7.185,7.185,0,0,0,25.628,56.384Zm-23.578,0a7.176,7.176,0,1,0,7.176-7.176A7.185,7.185,0,0,0,2.05,56.384ZM33.831,41.971v5.247h0a9.239,9.239,0,0,1,8.141,8.141h5.247a9.176,9.176,0,0,1,1.964-4.728L38.557,40.007A9.171,9.171,0,0,1,33.831,41.971Zm-17.4,8.66a9.183,9.183,0,0,1,1.964,4.728h5.247a9.24,9.24,0,0,1,8.141-8.141V41.971a9.174,9.174,0,0,1-4.727-1.964ZM40.007,38.557,50.632,49.183a9.181,9.181,0,0,1,4.727-1.965V41.971a9.239,9.239,0,0,1-8.141-8.141H41.971A9.178,9.178,0,0,1,40.007,38.557ZM18.393,33.831a9.24,9.24,0,0,1-8.141,8.141v5.247a9.18,9.18,0,0,1,4.727,1.964L25.6,38.558a9.183,9.183,0,0,1-1.964-4.728H18.393Zm30.815-1.026a7.176,7.176,0,1,0,7.176-7.177A7.185,7.185,0,0,0,49.207,32.806Zm-23.579,0A7.176,7.176,0,1,0,32.8,25.629,7.185,7.185,0,0,0,25.628,32.806Zm-23.578,0a7.176,7.176,0,1,0,7.176-7.177A7.184,7.184,0,0,0,2.05,32.806Zm8.2-14.413v5.247a9.239,9.239,0,0,1,8.141,8.141h5.247A9.183,9.183,0,0,1,25.6,27.053L14.979,16.429A9.174,9.174,0,0,1,10.252,18.393Zm29.755,8.66a9.18,9.18,0,0,1,1.964,4.727h5.247a9.24,9.24,0,0,1,8.141-8.141V18.393a9.184,9.184,0,0,1-4.728-1.965Zm-6.177-8.66v5.247A9.181,9.181,0,0,1,38.557,25.6L49.182,14.979a9.178,9.178,0,0,1-1.964-4.727H41.971A9.239,9.239,0,0,1,33.831,18.393Zm-17.4-3.414L27.053,25.6a9.179,9.179,0,0,1,4.727-1.965V18.393a9.238,9.238,0,0,1-8.141-8.141H18.393A9.181,9.181,0,0,1,16.428,14.979ZM49.207,9.226A7.176,7.176,0,1,0,56.383,2.05,7.185,7.185,0,0,0,49.207,9.226Zm-23.579,0A7.176,7.176,0,1,0,32.8,2.05,7.185,7.185,0,0,0,25.628,9.226Zm-23.578,0A7.176,7.176,0,1,0,9.226,2.05,7.184,7.184,0,0,0,2.05,9.226Zm53.61,51.983-4.1-4.1a1.024,1.024,0,0,1,0-1.45l4.1-4.1a1.023,1.023,0,0,1,1.45,0l4.1,4.1a1.023,1.023,0,0,1,0,1.449l-4.1,4.1a1.025,1.025,0,0,1-1.45,0Zm-1.926-4.825,2.651,2.651,2.651-2.651-2.651-2.651ZM32.081,61.209l-4.1-4.1a1.024,1.024,0,0,1,0-1.45l4.1-4.1a1.024,1.024,0,0,1,1.45,0l4.1,4.1a1.023,1.023,0,0,1,0,1.449l-4.1,4.1a1.025,1.025,0,0,1-1.45,0Zm-1.926-4.825,2.651,2.651,2.651-2.651-2.651-2.651ZM8.5,61.209l-4.1-4.1a1.024,1.024,0,0,1,0-1.45l4.1-4.1a1.023,1.023,0,0,1,1.449,0l4.1,4.1a1.023,1.023,0,0,1,0,1.449l-4.1,4.1a1.024,1.024,0,0,1-1.449,0ZM6.575,56.384l2.651,2.651,2.651-2.651L9.226,53.733ZM55.659,37.631l-4.1-4.1a1.024,1.024,0,0,1,0-1.45l4.1-4.1a1.023,1.023,0,0,1,1.45,0l4.1,4.1a1.023,1.023,0,0,1,0,1.449l-4.1,4.1a1.024,1.024,0,0,1-1.45,0ZM53.733,32.8l2.651,2.652L59.035,32.8l-2.651-2.651ZM32.081,37.631l-4.1-4.1a1.024,1.024,0,0,1,0-1.45l4.1-4.1a1.024,1.024,0,0,1,1.45,0l4.1,4.1a1.023,1.023,0,0,1,0,1.449l-4.1,4.1a1.024,1.024,0,0,1-1.45,0ZM30.155,32.8l2.651,2.652L35.457,32.8l-2.651-2.651ZM8.5,37.631l-4.1-4.1a1.023,1.023,0,0,1,0-1.449l4.1-4.1a1.023,1.023,0,0,1,1.449,0l4.1,4.1a1.023,1.023,0,0,1,0,1.449l-4.1,4.1a1.025,1.025,0,0,1-1.449,0ZM6.575,32.806l2.651,2.651,2.652-2.651L9.226,30.155ZM55.659,14.052l-4.1-4.1a1.024,1.024,0,0,1,0-1.45l4.1-4.1a1.024,1.024,0,0,1,1.45,0l4.1,4.1a1.024,1.024,0,0,1,0,1.45l-4.1,4.1a1.024,1.024,0,0,1-1.45,0ZM53.733,9.226l2.651,2.652,2.651-2.652L56.384,6.575ZM32.08,14.052l-4.1-4.1a1.024,1.024,0,0,1,0-1.45l4.1-4.1a1.023,1.023,0,0,1,1.449,0l4.1,4.1a1.024,1.024,0,0,1,0,1.45l-4.1,4.1a1.024,1.024,0,0,1-1.45,0ZM30.154,9.226,32.8,11.878l2.651-2.652L32.8,6.575ZM8.5,14.052l-4.1-4.1a1.024,1.024,0,0,1,0-1.45L8.5,4.4a1.023,1.023,0,0,1,1.449,0l4.1,4.1a1.024,1.024,0,0,1,0,1.45l-4.1,4.1a1.023,1.023,0,0,1-1.449,0ZM6.575,9.226l2.651,2.652,2.652-2.652L9.226,6.575Z" transform="translate(585.5 629.5)" fill="#1b54f8" stroke="#fff" stroke-width="0.6"></path></g></svg> 