<?xml version="1.0" encoding="UTF-8"?> <svg xmlns="http://www.w3.org/2000/svg" id="Layer_1" data-name="Layer 1" viewBox="0 0 100 100"><defs><style>.cls-1{fill:#1b54f8;}</style></defs><path class="cls-1" d="M50.2,11A6.85,6.85,0,1,0,57,17.9h0A6.83,6.83,0,0,0,50.2,11Z"></path><path class="cls-1" d="M50.2,75.3A6.85,6.85,0,1,0,57,82.2h0a6.77,6.77,0,0,0-6.8-6.9Z"></path><path class="cls-1" d="M77.3,36.9a6.86,6.86,0,1,1,9.7,0A6.82,6.82,0,0,1,77.3,36.9Z"></path><path class="cls-1" d="M13,73a6.86,6.86,0,1,1,9.7,0A6.82,6.82,0,0,1,13,73Z"></path><path class="cls-1" d="M77.3,73A6.86,6.86,0,1,1,87,73,6.82,6.82,0,0,1,77.3,73Z"></path><path class="cls-1" d="M17.9,39a6.83,6.83,0,1,1,4.9-2A7.63,7.63,0,0,1,17.9,39Z"></path><path class="cls-1" d="M27.9,31.9l14.2-8.2a9.45,9.45,0,0,1-1.9-5.6L26,26.3A10.18,10.18,0,0,1,27.9,31.9Z"></path><path class="cls-1" d="M20.6,58.6V41.7a8.63,8.63,0,0,1-2.8.4,11.15,11.15,0,0,1-3.1-.5v17A10.75,10.75,0,0,1,20.6,58.6Z"></path><path class="cls-1" d="M40.2,82.1a10.94,10.94,0,0,1,1.3-5L27.8,69.4a9.86,9.86,0,0,1-2.4,5.4l14.8,8.3Z"></path><path class="cls-1" d="M74.6,74.8a9.89,9.89,0,0,1-2.4-5.3L58.8,77.2a10,10,0,0,1,1.4,5.1v.9Z"></path><path class="cls-1" d="M82.2,42.1a9,9,0,0,1-2.8-.4V58.6a10.4,10.4,0,0,1,5.8.1V41.6A10.47,10.47,0,0,1,82.2,42.1Z"></path><path class="cls-1" d="M74,26.2,60.1,18.1a9.45,9.45,0,0,1-1.9,5.6l13.9,8.1A10.74,10.74,0,0,1,74,26.2Z"></path><path class="cls-1" d="M66.3,39,51.4,30.4a2.8,2.8,0,0,0-2.8,0L33.7,39a2.69,2.69,0,0,0-1.4,2.4V58.6A2.69,2.69,0,0,0,33.7,61l14.9,8.6a2.8,2.8,0,0,0,2.8,0L66.3,61a2.69,2.69,0,0,0,1.4-2.4V41.4A2.69,2.69,0,0,0,66.3,39ZM47.2,51.6V62.5l-9.4-5.4V46.2ZM59.4,41.4,50,46.8l-9.4-5.4L50,36Zm2.8,4.8V57.1l-9.4,5.4V51.6Z"></path></svg> 