<?xml version="1.0" encoding="UTF-8"?> <svg xmlns="http://www.w3.org/2000/svg" id="Layer_1" data-name="Layer 1" viewBox="0 0 100 100"><defs><style>.cls-1{fill:#1b54f8;}</style></defs><path class="cls-1" d="M50,41.3a13,13,0,1,1,12.9-13A12.93,12.93,0,0,1,50,41.3Z"></path><path class="cls-1" d="M28.3,84.6A12.9,12.9,0,1,1,41.2,71.7,12.93,12.93,0,0,1,28.3,84.6Z"></path><path class="cls-1" d="M28.3,60.5a.9.9,0,0,1-.9-.9V50a.9.9,0,0,1,.9-.9H47.6a.9.9,0,0,1,0,1.8H29.2v8.7A.9.9,0,0,1,28.3,60.5Z"></path><path class="cls-1" d="M71.7,62.9a.9.9,0,0,1-.9-.9V50.9H52.4a.9.9,0,0,1,0-1.8H71.7a.9.9,0,0,1,.9.9V62A.9.9,0,0,1,71.7,62.9Z"></path><path class="cls-1" d="M50,48.5a.9.9,0,0,1-.9-.9V40.4a.9.9,0,0,1,1.8,0v7.2A.9.9,0,0,1,50,48.5Z"></path><path class="cls-1" d="M50,53.3A3.3,3.3,0,1,1,53.3,50,3.33,3.33,0,0,1,50,53.3Zm0-4.8A1.5,1.5,0,1,0,51.5,50,1.54,1.54,0,0,0,50,48.5Z"></path><path class="cls-1" d="M83.7,61.1H59.6a.9.9,0,0,0-.9.9V83.7a.9.9,0,0,0,.9.9H83.7a.9.9,0,0,0,.9-.9V62A.9.9,0,0,0,83.7,61.1Zm-5.4,8.8-8.4,8.4a.85.85,0,0,1-1.3,0L65,74.7a1.05,1.05,0,0,1,0-1.3.91.91,0,0,1,1.2,0l3,3L77,68.6a.92.92,0,1,1,1.3,1.3Z"></path></svg> 