<?xml version="1.0" encoding="UTF-8"?> <svg xmlns="http://www.w3.org/2000/svg" id="Layer_1" data-name="Layer 1" viewBox="0 0 100 100"><defs><style>.cls-1{fill:#1b54f8;}</style></defs><path class="cls-1" d="M77.4,48.6a.75.75,0,0,1-.1.5l-.7,3.3-.1.3-.9,3.6h0A5.68,5.68,0,0,1,73,57.5c-.2,0-.5.1-.7.1H38.7a5.1,5.1,0,0,1,0-10.2h2.6a53.74,53.74,0,0,1,20.9,4.5,6.08,6.08,0,0,0,2.5.6h4.9a2.77,2.77,0,0,0,2.7-2.2l.5-2.1a2.32,2.32,0,0,1,4.6.4Z"></path><circle class="cls-1" cx="28.1" cy="44.8" r="4.9"></circle><path class="cls-1" d="M67.2,22.5a4.55,4.55,0,0,0-4.6-4.7q-9.9.15-19.8,0a4.41,4.41,0,0,0-4.6,4.6V35.2a4.36,4.36,0,0,0,4.5,4.5h20a4.3,4.3,0,0,0,4.5-4.5C67.2,31,67.1,26.7,67.2,22.5Zm-4.4,5.2a1.51,1.51,0,0,1-1.4-.7h-.9c-.8,1.7-1.7,3.4-2.5,5l-.6,1.2a2.23,2.23,0,0,1-2,1.4h-.3a2.22,2.22,0,0,1-1.9-1.7c-.5-1.7-1.4-4.3-2.1-6.3l-.6,1.2c-.3.5-.5,1.1-.8,1.6a2.18,2.18,0,0,1-4.1-.3c-.2-.6-.5-1.6-.8-2.5a2.92,2.92,0,0,1-.9.2H42.3l-.4.3a1.2,1.2,0,1,1,0-2.4h1.8l.1-.1.4-.4a1.38,1.38,0,0,1,1.3-.5,1.67,1.67,0,0,1,1.1.9c.2.7.8,2.3,1.1,3.4l2.2-4.3a1.6,1.6,0,0,1,1.4-.8h.1a1.38,1.38,0,0,1,1.3,1c.5,1.5,1.9,5.5,2.7,8l.4-.9c.9-1.7,1.8-3.6,2.7-5.3a1.62,1.62,0,0,1,1.6-1h1.3a2.1,2.1,0,0,1,1.4-.7,1.9,1.9,0,0,1,1.9,1.9A2,2,0,0,1,62.8,27.7Z"></path><path class="cls-1" d="M79.4,60.3H36.5a10.22,10.22,0,0,1-7.2-3l-5.8-5.8a4.53,4.53,0,0,0-1.9-1.1,3.75,3.75,0,0,0-2.1,0,4.12,4.12,0,0,0-1.9,1.1,4.18,4.18,0,0,0-1.2,2.9v13a4.27,4.27,0,0,0,4.3,4.3l9.8.1v7.4a3,3,0,0,0,6,0V71.8H65.4v7.4a3,3,0,1,0,6,0V71.8h8.1c2.3,0,4.1-2.2,4.1-5.8C83.5,63,81.7,60.3,79.4,60.3Z"></path></svg> 