<?xml version="1.0" encoding="UTF-8"?> <svg xmlns="http://www.w3.org/2000/svg" id="Layer_1" data-name="Layer 1" viewBox="0 0 138 138"><defs><style>.cls-1,.cls-2{fill:#1b54f8;}.cls-2{opacity:0;}</style></defs><path class="cls-1" d="M64.06,32.35a1.51,1.51,0,0,0,1.59-1.59V27.59a1.59,1.59,0,0,0-3.18,0v3.17A1.51,1.51,0,0,0,64.06,32.35Z"></path><path class="cls-1" d="M48.51,35.36a1.63,1.63,0,1,0,2.85-1.58l-1.58-2.86a1.77,1.77,0,0,0-2.23-.63,1.67,1.67,0,0,0-.63,2.22Z"></path><path class="cls-1" d="M36,44.73l2.85,1.59a1.64,1.64,0,1,0,1.59-2.86l-2.86-1.59A1.63,1.63,0,0,0,36,44.73Z"></path><path class="cls-1" d="M37.24,59.17a1.51,1.51,0,0,0-1.59-1.59H32.48a1.59,1.59,0,1,0,0,3.18h3.17A1.59,1.59,0,0,0,37.24,59.17Z"></path><path class="cls-1" d="M38.67,71.87l-2.86,1.59a1.63,1.63,0,1,0,1.59,2.85l2.85-1.58a1.63,1.63,0,1,0-1.58-2.86Z"></path><path class="cls-1" d="M92.15,73.46,89.3,71.87a1.64,1.64,0,1,0-1.59,2.86l2.86,1.58a1.39,1.39,0,0,0,.79.16,1.91,1.91,0,0,0,1.43-.79A1.74,1.74,0,0,0,92.15,73.46Z"></path><path class="cls-1" d="M95.64,57.58H92.47a1.59,1.59,0,0,0,0,3.18h3.17a1.5,1.5,0,0,0,1.59-1.59A1.59,1.59,0,0,0,95.64,57.58Z"></path><path class="cls-1" d="M89.3,46.32l2.85-1.59a1.63,1.63,0,1,0-1.58-2.86l-2.86,1.59a1.77,1.77,0,0,0-.64,2.22A1.69,1.69,0,0,0,89.3,46.32Z"></path><path class="cls-1" d="M77.39,36a1.59,1.59,0,0,0,2.22-.64l1.59-2.85a1.47,1.47,0,0,0-.63-2.07,1.49,1.49,0,0,0-2.07.48l-1.58,2.86A1.56,1.56,0,0,0,77.39,36Z"></path><path class="cls-1" d="M115.64,79.81l-8.41-17a2.24,2.24,0,0,1-.32-1.11c.16-22.38-16.82-41.42-38.56-43.33a42.19,42.19,0,0,0-32.54,11A43,43,0,0,0,22,60.76,42.51,42.51,0,0,0,33.9,90.28,40,40,0,0,1,45,118.21a1.5,1.5,0,0,0,1.59,1.59H94.85a1.5,1.5,0,0,0,1.59-1.59V99.49h6.66a3.93,3.93,0,0,0,4-4V84.88a.86.86,0,0,1,.8-.79h5.23a2.69,2.69,0,0,0,2.54-1.43A3,3,0,0,0,115.64,79.81Zm-7.77,1.26a3.93,3.93,0,0,0-4,4V95.68a.86.86,0,0,1-.8.79H94.85a1.51,1.51,0,0,0-1.59,1.59v18.57H48.19A42.8,42.8,0,0,0,36.13,88.06,39.34,39.34,0,0,1,68,21.56C88.18,23.3,103.9,40.92,103.9,61.71a4.15,4.15,0,0,0,.63,2.38l8.26,16.83h-4.92Z"></path><path class="cls-1" d="M62,34.09A23.88,23.88,0,0,0,49.3,76a10.67,10.67,0,0,1,4,8.41,4.51,4.51,0,0,0-1.59,3.49,4.62,4.62,0,0,0,3.17,4.44,4.13,4.13,0,0,0-.31,1.91A4.76,4.76,0,0,0,58,98.85a6.57,6.57,0,0,0,6.66,6.51,6.67,6.67,0,0,0,6.67-6.51,4.62,4.62,0,0,0,3.49-4.6,8.46,8.46,0,0,0-.31-1.91,4.62,4.62,0,0,0,3.17-4.44,4.81,4.81,0,0,0-1.59-3.49,12.38,12.38,0,0,1,4-8.41A23.87,23.87,0,0,0,62,34.09Zm2.69,30.32a2.22,2.22,0,1,1,2.23-2.22A2.17,2.17,0,0,1,64.69,64.41Zm8.1,21.74a1.6,1.6,0,0,1,1.59,1.59,1.51,1.51,0,0,1-1.59,1.59H56.44a1.6,1.6,0,0,1-1.59-1.59,1.51,1.51,0,0,1,1.59-1.59ZM64.69,102a3.59,3.59,0,0,1-3.49-3.18H68A3.33,3.33,0,0,1,64.69,102Zm5.4-6.35H59.3a1.59,1.59,0,0,1-1.59-1.59A1.51,1.51,0,0,1,59.3,92.5H70.09a1.59,1.59,0,0,1,0,3.18ZM78,73.46A14.85,14.85,0,0,0,73,83H66.28V67.43a5.29,5.29,0,0,0,3.81-5.08,5.4,5.4,0,1,0-10.79,0,5.29,5.29,0,0,0,3.81,5.08V83.14H56.44a14.85,14.85,0,0,0-5.08-9.52,20.68,20.68,0,0,1-7.14-18.1A20.9,20.9,0,0,1,62.47,37.27a20.67,20.67,0,0,1,23,20.63A21.2,21.2,0,0,1,78,73.46Z"></path><rect class="cls-2" width="138" height="138"></rect></svg> 