<?xml version="1.0" encoding="UTF-8"?> <svg xmlns="http://www.w3.org/2000/svg" id="Layer_1" data-name="Layer 1" viewBox="0 0 138 138"><defs><style>.cls-1,.cls-2{fill:#1b54f8;}.cls-2{opacity:0;}</style></defs><path class="cls-1" d="M111.8,18.42H80.54a9.11,9.11,0,0,0-9.2,9.2V58.88a1.84,1.84,0,1,0,3.68,0V27.62a5.42,5.42,0,0,1,5.52-5.52H111.8a5.42,5.42,0,0,1,5.52,5.52V90.15H75V69.92H78.7a7.19,7.19,0,0,0,7.35-7.36V56.49a3.54,3.54,0,0,0,1.84-3.12,3.68,3.68,0,1,0-7.35,0,3.55,3.55,0,0,0,1.83,3.12v6.07a3.45,3.45,0,0,1-3.67,3.68h-11V44.17a9.11,9.11,0,0,0-9.2-9.2H27.2a9.11,9.11,0,0,0-9.2,9.2v66.21a9.11,9.11,0,0,0,9.2,9.2H58.46a9.11,9.11,0,0,0,9.2-9.2V77.28a1.84,1.84,0,0,0-3.68,0v29.43H21.68V44.17a5.42,5.42,0,0,1,5.52-5.52H58.46A5.42,5.42,0,0,1,64,44.17V66.24H60.3A7.2,7.2,0,0,0,53,73.6v9.75a3.54,3.54,0,0,0-1.84,3.12,3.68,3.68,0,1,0,7.35,0,3.54,3.54,0,0,0-1.84-3.12V73.6a3.5,3.5,0,0,1,3.68-3.68h11V93.83a9.11,9.11,0,0,0,9.2,9.2H111.8a9.11,9.11,0,0,0,9.2-9.2V27.62A9.11,9.11,0,0,0,111.8,18.42ZM64,110.38a5.42,5.42,0,0,1-5.52,5.52H27.2a5.42,5.42,0,0,1-5.52-5.52Zm47.82-11H80.54A5.42,5.42,0,0,1,75,93.83h42.3A5.42,5.42,0,0,1,111.8,99.35Z"></path><path class="cls-1" d="M27.2,57h7.35a1.84,1.84,0,1,0,0-3.67H27.2a1.84,1.84,0,1,0,0,3.67Z"></path><path class="cls-1" d="M40.07,68.08H27.2a1.84,1.84,0,1,0,0,3.68H40.07a1.84,1.84,0,0,0,0-3.68Z"></path><path class="cls-1" d="M40.07,95.67H27.2a1.84,1.84,0,0,0,0,3.68H40.07a1.84,1.84,0,0,0,0-3.68Z"></path><path class="cls-1" d="M47.43,62.75a1.74,1.74,0,0,0-1.84-1.84H27.2a1.84,1.84,0,1,0,0,3.68H45.59A1.85,1.85,0,0,0,47.43,62.75Z"></path><path class="cls-1" d="M89.73,38.65a1.74,1.74,0,0,0,1.84,1.84h7.36a1.84,1.84,0,0,0,0-3.68H91.57A1.74,1.74,0,0,0,89.73,38.65Z"></path><path class="cls-1" d="M104.45,44.17H91.57a1.84,1.84,0,1,0,0,3.68h12.88a1.84,1.84,0,1,0,0-3.68Z"></path><path class="cls-1" d="M98.93,51.53H91.57a1.84,1.84,0,1,0,0,3.68h7.36a1.84,1.84,0,0,0,0-3.68Z"></path><path class="cls-1" d="M102.61,53.37a1.74,1.74,0,0,0,1.84,1.84h3.67a1.84,1.84,0,0,0,0-3.68h-3.67A1.73,1.73,0,0,0,102.61,53.37Z"></path><path class="cls-1" d="M100.77,68.08a1.74,1.74,0,0,0-1.84-1.84H91.57a1.84,1.84,0,1,0,0,3.68h7.36A1.74,1.74,0,0,0,100.77,68.08Z"></path><path class="cls-1" d="M91.57,73.6a1.84,1.84,0,1,0,0,3.68h3.68a1.84,1.84,0,0,0,0-3.68Z"></path><rect class="cls-2" width="138" height="138"></rect></svg> 