<?xml version="1.0" encoding="UTF-8"?> <svg xmlns="http://www.w3.org/2000/svg" id="Layer_1" data-name="Layer 1" viewBox="0 0 138 138"><defs><style>.cls-1,.cls-2{fill:#1b54f8;}.cls-2{opacity:0;}</style></defs><path class="cls-1" d="M100.65,102.51a1.62,1.62,0,0,1-.69-.16L87.17,96.14a1.56,1.56,0,0,1-.85-1.07c-2-8.51,4.34-16.6,11.43-20.15l4.4-9.08a4.61,4.61,0,0,1,6.16-2.13l.16.08L109,51.63a4.74,4.74,0,0,1,9.33-.76c2.89,14.09,4.12,25.27.72,34.35-2.4,6.41-9.36,11.51-17.52,17A1.66,1.66,0,0,1,100.65,102.51Zm-11.4-8.88,11.32,5.48c7.38-5,13.57-9.68,15.59-15,3.16-8.3,1.91-19-.87-32.59a1.56,1.56,0,0,0-3.08.26l-.68,15.88a8.47,8.47,0,0,1,0,6c-3.71,9.81-5.68,11.06-6.31,11.44a1.58,1.58,0,0,1-1.67-2.69h0c.8-.49,2.6-3.36,5-9.87a5.38,5.38,0,0,0-1.15-5.59,1.45,1.45,0,0,0-1.28-.42,1.35,1.35,0,0,0-1.09.79l-4.64,9.58a1.56,1.56,0,0,1-.76.74C93.63,80.31,88.13,86.81,89.25,93.63Z"></path><path class="cls-1" d="M98.05,119.42A1.6,1.6,0,0,1,97,119L78.29,101.86A1.57,1.57,0,0,1,78,100l4-8.18A1.58,1.58,0,0,1,84,91.1h0l21.83,10.59a1.57,1.57,0,0,1,.75,2.1v0l-7.14,14.7a1.61,1.61,0,0,1-1.14.87ZM81.29,100.33l16.25,14.9,5.53-11.38L84.12,94.63Z"></path><path class="cls-1" d="M37.41,102.51a1.63,1.63,0,0,1-.88-.27C28.37,96.7,21.4,91.6,19,85.18c-3.46-9-2.23-20.25.66-34.34a4.74,4.74,0,0,1,9.33.79l.54,12.16a4.61,4.61,0,0,1,6.24,1.9,1.09,1.09,0,0,0,.08.15l4.4,9.08c7.09,3.55,13.41,11.64,11.39,20.15a1.57,1.57,0,0,1-.86,1.07L38,102.35A1.56,1.56,0,0,1,37.41,102.51ZM24.26,50.24a1.59,1.59,0,0,0-1.58,1.23c-2.63,13.55-3.93,24.29-.8,32.59,2,5.37,8.21,10,15.58,15l11.28-5.48c1.12-6.82-4.38-13.32-10.35-16.09a1.54,1.54,0,0,1-.75-.74L33,67.22a1.35,1.35,0,0,0-1.09-.79,1.46,1.46,0,0,0-1.28.42,5.39,5.39,0,0,0-1.1,5.59C32,79,33.78,81.82,34.57,82.31a1.58,1.58,0,0,1,.51,2.18h0a1.59,1.59,0,0,1-2.17.51c-.66-.4-2.63-1.58-6.31-11.44a8.47,8.47,0,0,1,0-6l-.78-15.88a1.57,1.57,0,0,0-1.31-1.47Z"></path><path class="cls-1" d="M39.94,119.42h-.28a1.59,1.59,0,0,1-1.14-.87l-7.14-14.7a1.58,1.58,0,0,1,.73-2.11h0L54,91.11a1.58,1.58,0,0,1,2.12.72h0l4,8.18a1.58,1.58,0,0,1-.37,1.85L41,119A1.58,1.58,0,0,1,39.94,119.42Zm-5-15.57,5.53,11.38,16.24-14.9-2.76-5.7Z"></path><path class="cls-1" d="M82.7,63H55.29a4.41,4.41,0,0,1-4.39-4.39V31.1a4.39,4.39,0,0,1,4.39-4.38H82.7a4.39,4.39,0,0,1,4.39,4.38V58.58A4.41,4.41,0,0,1,82.7,63Zm-27.41-33a1.24,1.24,0,0,0-1.23,1.23V58.58a1.24,1.24,0,0,0,1.23,1.23H82.7a1.24,1.24,0,0,0,1.23-1.23V31.1a1.25,1.25,0,0,0-1.23-1.23Z"></path><path class="cls-1" d="M93.7,35.49H85.51a1.58,1.58,0,1,1,0-3.15H93.7a1.58,1.58,0,1,1,0,3.15Z"></path><path class="cls-1" d="M93.7,42.3H85.51a1.58,1.58,0,1,1,0-3.16H93.7a1.58,1.58,0,1,1,0,3.16Z"></path><path class="cls-1" d="M93.7,49.09H85.51a1.58,1.58,0,1,1,0-3.16H93.7a1.58,1.58,0,1,1,0,3.16Z"></path><path class="cls-1" d="M93.7,55.88H85.51a1.58,1.58,0,1,1,0-3.16H93.7a1.58,1.58,0,1,1,0,3.16Z"></path><path class="cls-1" d="M52.48,35.49h-8.2a1.58,1.58,0,1,1,0-3.15h8.2a1.58,1.58,0,1,1,0,3.15Z"></path><path class="cls-1" d="M52.48,42.3h-8.2a1.58,1.58,0,0,1,0-3.16h8.2a1.58,1.58,0,1,1,0,3.16Z"></path><path class="cls-1" d="M52.48,49.09h-8.2a1.58,1.58,0,1,1,0-3.16h8.2a1.58,1.58,0,1,1,0,3.16Z"></path><path class="cls-1" d="M52.48,55.88h-8.2a1.58,1.58,0,1,1,0-3.16h8.2a1.58,1.58,0,1,1,0,3.16Z"></path><path class="cls-1" d="M79.19,71.16a1.57,1.57,0,0,1-1.57-1.58V61.39a1.58,1.58,0,1,1,3.15,0v8.19A1.57,1.57,0,0,1,79.19,71.16Z"></path><path class="cls-1" d="M72.39,71.16a1.58,1.58,0,0,1-1.58-1.58V61.39a1.58,1.58,0,0,1,3.16,0v8.19A1.58,1.58,0,0,1,72.39,71.16Z"></path><path class="cls-1" d="M65.6,71.16A1.58,1.58,0,0,1,64,69.58V61.39a1.58,1.58,0,1,1,3.16,0v8.19A1.58,1.58,0,0,1,65.6,71.16Z"></path><path class="cls-1" d="M58.81,71.16a1.58,1.58,0,0,1-1.58-1.58V61.39a1.58,1.58,0,0,1,3.16,0v8.19A1.58,1.58,0,0,1,58.81,71.16Z"></path><path class="cls-1" d="M79.19,29.94a1.57,1.57,0,0,1-1.57-1.58v-8.2a1.58,1.58,0,1,1,3.15,0v8.2A1.58,1.58,0,0,1,79.19,29.94Z"></path><path class="cls-1" d="M72.39,29.94a1.58,1.58,0,0,1-1.58-1.58v-8.2a1.58,1.58,0,0,1,3.16,0v8.2A1.58,1.58,0,0,1,72.39,29.94Z"></path><path class="cls-1" d="M65.6,29.94A1.58,1.58,0,0,1,64,28.36v-8.2a1.58,1.58,0,0,1,3.16,0v8.2A1.58,1.58,0,0,1,65.6,29.94Z"></path><path class="cls-1" d="M58.81,29.94a1.58,1.58,0,0,1-1.58-1.58v-8.2a1.58,1.58,0,1,1,3.16,0v8.2A1.58,1.58,0,0,1,58.81,29.94Z"></path><path class="cls-1" d="M78.22,40.58H69a1.58,1.58,0,0,1,0-3.16h8.8l7-4.18a1.58,1.58,0,1,1,2,2.48,1.79,1.79,0,0,1-.38.22l-7.28,4.35A1.56,1.56,0,0,1,78.22,40.58Z"></path><path class="cls-1" d="M69,53.7H59.77a1.68,1.68,0,0,1-.82-.22l-7.32-4.36a1.58,1.58,0,0,1,1.2-2.92,1.72,1.72,0,0,1,.37.22l6.92,4.12H69a1.58,1.58,0,1,1,0,3.16Z"></path><rect class="cls-2" width="138" height="138"></rect></svg> 