<?xml version="1.0" encoding="UTF-8"?> <svg xmlns="http://www.w3.org/2000/svg" xmlns:xlink="http://www.w3.org/1999/xlink" width="90" height="90" viewBox="0 0 90 90"><defs><clipPath id="clip-path"><rect id="Rectangle_7" data-name="Rectangle 7" width="90" height="90" transform="translate(265 600)" fill="#fff"></rect></clipPath></defs><g id="Mask_Group_7" data-name="Mask Group 7" transform="translate(-265 -600)" clip-path="url(#clip-path)"><g id="Group_62" data-name="Group 62" transform="translate(-141.399 4)"><g id="Group_60" data-name="Group 60" transform="translate(410.399 600)"><path id="Path_100" data-name="Path 100" d="M87.655,55.205h4.309a1.026,1.026,0,0,0,0-2.052H88.681V18.682h34.471v8.823a1.026,1.026,0,0,0,2.052,0V17.656a1.052,1.052,0,0,0-1.026-1.026H87.656a1.052,1.052,0,0,0-1.026,1.026V54.179A1.052,1.052,0,0,0,87.656,55.2Z" transform="translate(-86.629 -16.63)" fill="#1b54f8"></path><path id="Path_101" data-name="Path 101" d="M87.648,335.2H124.17a1.052,1.052,0,0,0,1.026-1.026V309.96a1.026,1.026,0,1,0-2.052,0v23.186H88.673V298.674h3.283a1.026,1.026,0,0,0,0-2.052H87.647a1.052,1.052,0,0,0-1.026,1.026v36.522a1.052,1.052,0,0,0,1.026,1.026Z" transform="translate(-86.621 -252.851)" fill="#1b54f8"></path><path id="Path_102" data-name="Path 102" d="M367.657,27.026A1.052,1.052,0,0,0,368.683,26V18.682h34.471V53.153h-3.283a1.026,1.026,0,0,0,0,2.052h4.309a1.052,1.052,0,0,0,1.026-1.026V17.656a1.052,1.052,0,0,0-1.026-1.026H367.658a1.052,1.052,0,0,0-1.026,1.026V26a1.052,1.052,0,0,0,1.026,1.026Z" transform="translate(-322.857 -16.63)" fill="#1b54f8"></path><path id="Path_103" data-name="Path 103" d="M367.65,335.209h36.522a1.052,1.052,0,0,0,1.026-1.026V297.661a1.052,1.052,0,0,0-1.026-1.026h-4.309a1.026,1.026,0,1,0,0,2.052h3.283v34.471H368.675V309.973a1.026,1.026,0,0,0-2.052,0v24.213a1.052,1.052,0,0,0,1.026,1.026Z" transform="translate(-322.85 -252.861)" fill="#1b54f8"></path><path id="Path_104" data-name="Path 104" d="M184.448,104.56a12.439,12.439,0,0,0-10.875,6.771,12.728,12.728,0,0,0-3.557-.479A12.459,12.459,0,0,0,157.5,122.137c-5.2,1.71-8.755,6.908-8.755,12.858,0,4.719,3.557,8.549,7.934,8.549h47.056c4.377,0,7.934-3.83,7.934-8.549,0-7.455-5.608-13.542-12.516-13.542h-2.531a14.045,14.045,0,0,0,.41-3.351c-.068-7.455-5.677-13.542-12.585-13.542Zm14.7,18.946c5.814,0,10.465,5.13,10.465,11.49,0,3.557-2.667,6.5-5.882,6.5H156.68c-3.283,0-5.882-2.941-5.882-6.5,0-5.2,3.351-9.917,8-11.148a1.1,1.1,0,0,0,.752-.958,10.51,10.51,0,0,1,14.226-9.3,1.038,1.038,0,0,0,1.3-.547,10.317,10.317,0,0,1,9.37-6.361c5.814,0,10.465,5.13,10.465,11.49a11.64,11.64,0,0,1-.684,4.035.961.961,0,0,0,.137.958.975.975,0,0,0,.821.41h3.967Z" transform="translate(-139.034 -90.813)" fill="#1b54f8"></path></g></g></g></svg> 