<?xml version="1.0" encoding="UTF-8"?> <svg xmlns="http://www.w3.org/2000/svg" width="90" height="90" viewBox="0 0 90 90"><g id="Group_168" data-name="Group 168" transform="translate(-724 -743)"><rect id="Rectangle_12" data-name="Rectangle 12" width="90" height="90" transform="translate(724 743)" fill="#fff" opacity="0"></rect><g id="Group_164" data-name="Group 164" transform="translate(-293.371 -10.053)"><path id="Path_157" data-name="Path 157" d="M136.4,315.672a7.8,7.8,0,1,0,7.8-7.8A7.8,7.8,0,0,0,136.4,315.672Zm13.212,0a5.416,5.416,0,1,1-5.416-5.417A5.422,5.422,0,0,1,149.612,315.672Z" transform="translate(891.694 494.522)" fill="#1b54f8"></path><path id="Path_158" data-name="Path 158" d="M121.274,420.305a5.7,5.7,0,0,1,5.692-5.692h5.122a5.7,5.7,0,0,1,5.692,5.692v11.333h2.379V420.305a8.08,8.08,0,0,0-8.071-8.071h-5.122a8.08,8.08,0,0,0-8.071,8.071v11.333h2.379Z" transform="translate(906.364 407.074)" fill="#1b54f8"></path><path id="Path_159" data-name="Path 159" d="M448.092,355.25a7.795,7.795,0,1,0,7.795,7.795A7.8,7.8,0,0,0,448.092,355.25Zm0,13.212a5.416,5.416,0,1,1,5.416-5.416A5.423,5.423,0,0,1,448.092,368.462Z" transform="translate(637.036 454.825)" fill="#1b54f8"></path><path id="Path_160" data-name="Path 160" d="M425.174,467.7a5.7,5.7,0,0,1,5.692-5.692h5.122a5.7,5.7,0,0,1,5.692,5.692v3.656h2.379V467.7a8.08,8.08,0,0,0-8.071-8.071h-5.122a8.08,8.08,0,0,0-8.071,8.071v3.656h2.379V467.7Z" transform="translate(651.703 367.359)" fill="#1b54f8"></path><path id="Path_161" data-name="Path 161" d="M183.96,80.222a1.952,1.952,0,0,0,1.953-1.953V49.415a6.006,6.006,0,0,0-6-6h-22.17V34a6.006,6.006,0,0,0-6-6h-38.5a6.006,6.006,0,0,0-6,6V62.857a1.952,1.952,0,0,0,2.994,1.651l6.713-4.252H141.6v9.414a6.006,6.006,0,0,0,6,6l28.54-.02,6.778,4.273a1.951,1.951,0,0,0,1.042.3ZM141.6,49.415v8.192H116.957a2.511,2.511,0,0,0-1.346.389L109.9,61.6V34a3.355,3.355,0,0,1,3.351-3.351h38.5A3.355,3.355,0,0,1,155.095,34v9.414h-7.5a6.006,6.006,0,0,0-6,6Zm13.5-3.351v8.192a3.355,3.355,0,0,1-3.351,3.351h-7.5V49.415a3.355,3.355,0,0,1,3.351-3.351Zm21.112,26.957H147.6a3.355,3.355,0,0,1-3.351-3.351V60.258h7.5a6.006,6.006,0,0,0,6-6V46.066h22.17a3.355,3.355,0,0,1,3.351,3.351V77.011l-5.713-3.6a2.514,2.514,0,0,0-1.346-.39Z" transform="translate(916.122 729.05)" fill="#1b54f8"></path></g></g></svg> 