<?xml version="1.0" encoding="UTF-8"?> <svg xmlns="http://www.w3.org/2000/svg" width="90" height="90" viewBox="0 0 90 90"><g id="Group_65" data-name="Group 65" transform="translate(-504 -600)"><rect id="Rectangle_8" data-name="Rectangle 8" width="90" height="90" transform="translate(504 600)" fill="#fff" opacity="0"></rect><g id="Group_63" data-name="Group 63" transform="translate(-122.019 -159)"><path id="Path_1" data-name="Path 1" d="M213.984,260.07a1,1,0,0,1-1-.977v-4.506a2.851,2.851,0,0,1,2.852-2.852h5.344c.14-.379.3-.758.459-1.117l-3.769-3.769a2.841,2.841,0,0,1,0-4.028L221,239.691a2.864,2.864,0,0,1,4.048,0l3.769,3.769a10.884,10.884,0,0,1,1.117-.459v-5.324a2.851,2.851,0,0,1,2.852-2.852h4.426a2.851,2.851,0,0,1,2.852,2.852V243c.379.14.758.3,1.117.459l3.769-3.769a2.864,2.864,0,0,1,4.048,0l3.131,3.131a2.841,2.841,0,0,1,0,4.028l-3.769,3.769a10.879,10.879,0,0,1,.459,1.117h5.324A2.851,2.851,0,0,1,257,254.586v4.506a1,1,0,0,1-1.994-.08h0v-4.426a.851.851,0,0,0-.857-.857H248.1a1,1,0,0,1-.957-.7,11.14,11.14,0,0,0-.9-2.154,1,1,0,0,1,.18-1.177l4.267-4.267a.864.864,0,0,0,.259-.6.787.787,0,0,0-.259-.6l-3.131-3.131a.854.854,0,0,0-1.216,0l-4.267,4.267a1.025,1.025,0,0,1-1.177.18,12.935,12.935,0,0,0-2.154-.9.987.987,0,0,1-.7-.957v-6.042a.851.851,0,0,0-.857-.857h-4.426a.851.851,0,0,0-.857.857V243.7a1,1,0,0,1-.7.957,11.14,11.14,0,0,0-2.154.9,1,1,0,0,1-1.177-.18l-4.267-4.267a.854.854,0,0,0-1.216,0l-3.131,3.131a.864.864,0,0,0-.259.6.787.787,0,0,0,.259.6l4.267,4.267a.994.994,0,0,1,.18,1.177,12.937,12.937,0,0,0-.9,2.154.987.987,0,0,1-.957.7h-6.042a.851.851,0,0,0-.857.857v4.466a.986.986,0,0,1-.976,1.017h0Z" transform="translate(436.085 561.411)" fill="#1b54f8"></path><path id="Path_2" data-name="Path 2" d="M313.923,331.87a.989.989,0,0,1-.319-.06,1.015,1.015,0,0,1-.638-1.256,6.563,6.563,0,0,0,.319-1.954,6.281,6.281,0,1,0-12.562,0,5.813,5.813,0,0,0,.319,1.954.99.99,0,0,1-.638,1.256,1.015,1.015,0,0,1-1.256-.638,8.083,8.083,0,0,1-.419-2.572,8.275,8.275,0,0,1,16.55,0,8,8,0,0,1-.419,2.572,1,1,0,0,1-.938.7Z" transform="translate(364.08 489.611)" fill="#1b54f8"></path><path id="Path_3" data-name="Path 3" d="M180.6,154.007a8.435,8.435,0,1,1,8.435-8.435,8.45,8.45,0,0,1-8.435,8.435Zm0-14.875a6.44,6.44,0,1,0,6.44,6.44A6.45,6.45,0,0,0,180.6,139.132Z" transform="translate(470.363 643.445)" fill="#1b54f8"></path><path id="Path_4" data-name="Path 4" d="M431.6,154.007a8.435,8.435,0,1,1,8.435-8.435,8.45,8.45,0,0,1-8.435,8.435Zm0-14.875a6.44,6.44,0,1,0,6.44,6.44A6.45,6.45,0,0,0,431.6,139.132Z" transform="translate(259.58 643.445)" fill="#1b54f8"></path><path id="Path_5" data-name="Path 5" d="M454.535,174.637a.935.935,0,0,1-.7-.3.987.987,0,0,1,0-1.416l5.184-5.164a1.024,1.024,0,0,1,1.416,0,.987.987,0,0,1,0,1.416l-5.184,5.164A1.087,1.087,0,0,1,454.535,174.637Z" transform="translate(234.077 617.97)" fill="#1b54f8"></path><path id="Path_6" data-name="Path 6" d="M459.594,174.637a.935.935,0,0,1-.7-.3l-5.184-5.164a.987.987,0,0,1,0-1.416,1.024,1.024,0,0,1,1.416,0l5.184,5.164a.987.987,0,0,1,0,1.416A1.014,1.014,0,0,1,459.594,174.637Z" transform="translate(234.182 617.97)" fill="#1b54f8"></path><path id="Path_7" data-name="Path 7" d="M159.738,423.387H79.1a3.744,3.744,0,0,1-3.749-3.749v-2.751a.987.987,0,0,1,1-1H162.49a.987.987,0,0,1,1,1v2.751a3.757,3.757,0,0,1-3.749,3.749Zm-82.389-5.5v1.754a1.757,1.757,0,0,0,1.754,1.754h80.635a1.757,1.757,0,0,0,1.754-1.754v-1.754Z" transform="translate(551.664 409.357)" fill="#1b54f8"></path><path id="Path_8" data-name="Path 8" d="M183.061,457.737H113.454a3.744,3.744,0,0,1-3.749-3.749v-2.751a1,1,0,0,1,1.994,0v2.751a1.744,1.744,0,0,0,1.754,1.754h69.609a1.757,1.757,0,0,0,1.754-1.754v-2.751a1,1,0,0,1,1.994,0v2.751a3.744,3.744,0,0,1-3.749,3.749Z" transform="translate(522.818 380.511)" fill="#1b54f8"></path><path id="Path_9" data-name="Path 9" d="M170.559,123.086a1,1,0,1,1,0-1.994,3.515,3.515,0,0,0,3.509-3.509V70.348a3.515,3.515,0,0,0-3.509-3.509H99.4a3.515,3.515,0,0,0-3.509,3.509v47.216a3.515,3.515,0,0,0,3.509,3.509,1,1,0,1,1,0,1.994,5.515,5.515,0,0,1-5.5-5.5V70.348a5.515,5.515,0,0,1,5.5-5.5H170.54a5.515,5.515,0,0,1,5.5,5.5v47.216a5.49,5.49,0,0,1-5.484,5.523Z" transform="translate(536.097 704.156)" fill="#1b54f8"></path><path id="Path_10" data-name="Path 10" d="M199.506,147.523H130.854a.987.987,0,0,1-1-1V101.8a.987.987,0,0,1,1-1h68.651a.987.987,0,0,1,1,1v44.724a1,1,0,0,1-1,1Zm-67.655-1.994h66.658V102.8H131.851Z" transform="translate(505.895 673.957)" fill="#1b54f8"></path><path id="Path_11" data-name="Path 11" d="M201.946,176.558a.935.935,0,0,1-.7-.3l-2.074-2.053a1,1,0,1,1,1.416-1.416l1.356,1.356,3.529-3.529a1,1,0,0,1,1.416,1.416l-4.247,4.247a1,1,0,0,1-.7.279Z" transform="translate(447.922 615.57)" fill="#1b54f8"></path></g></g></svg> 