<?xml version="1.0" encoding="UTF-8"?> <svg xmlns="http://www.w3.org/2000/svg" width="90" height="90" viewBox="0 0 90 90"><g id="Group_167" data-name="Group 167" transform="translate(-502 -743)"><rect id="Rectangle_11" data-name="Rectangle 11" width="90" height="90" transform="translate(502 743)" fill="#fff" opacity="0"></rect><g id="Group_165" data-name="Group 165" transform="translate(-756.831 -2.182)"><path id="Path_204" data-name="Path 204" d="M171.824,43.829h-3.96V32.7a4.653,4.653,0,0,0-4.648-4.648h-45.77A4.653,4.653,0,0,0,112.8,32.7V43.829h-3.961a8.447,8.447,0,0,0-8.437,8.437V91.393a8.445,8.445,0,0,0,8.437,8.435H127.42l-3.223,6.3h-2.343a1.268,1.268,0,0,0,0,2.536H158.8a1.268,1.268,0,0,0,0-2.536h-2.342l-3.223-6.3h18.583a8.444,8.444,0,0,0,8.435-8.435V52.266a8.445,8.445,0,0,0-8.435-8.437Zm-56.49-1.806h50V71.269a2.115,2.115,0,0,1-2.113,2.113h-45.77a2.115,2.115,0,0,1-2.113-2.113Zm0-9.328a2.115,2.115,0,0,1,2.113-2.113h45.77A2.115,2.115,0,0,1,165.33,32.7v6.793h-50Zm-6.5,13.669h3.96v24.9a4.653,4.653,0,0,0,4.648,4.648h45.77a4.653,4.653,0,0,0,4.648-4.648v-24.9h3.96a5.907,5.907,0,0,1,5.9,5.9V85.842H102.938V52.266a5.909,5.909,0,0,1,5.9-5.9Zm44.777,59.762H127.05l3.222-6.3h20.121Zm18.21-8.835H108.838a5.907,5.907,0,0,1-5.9-5.9V88.378h74.787v3.014a5.906,5.906,0,0,1-5.9,5.9Z" transform="translate(1163.431 722.135)" fill="#1b54f8"></path><path id="Path_205" data-name="Path 205" d="M344.579,424.979A1.276,1.276,0,1,1,343.3,423.7a1.276,1.276,0,0,1,1.276,1.276" transform="translate(960.46 389.776)" fill="#1b54f8"></path><path id="Path_206" data-name="Path 206" d="M226.99,63.746a1.277,1.277,0,1,0,1.276,1.278A1.284,1.284,0,0,0,226.99,63.746Z" transform="translate(1058.165 692.148)" fill="#1b54f8"></path><path id="Path_207" data-name="Path 207" d="M265.289,63.746a1.277,1.277,0,1,0,1.276,1.278A1.284,1.284,0,0,0,265.289,63.746Z" transform="translate(1025.992 692.148)" fill="#1b54f8"></path><path id="Path_208" data-name="Path 208" d="M303.589,63.746a1.277,1.277,0,1,0,1.276,1.278A1.284,1.284,0,0,0,303.589,63.746Z" transform="translate(993.82 692.148)" fill="#1b54f8"></path><path id="Path_209" data-name="Path 209" d="M255.753,180.882a1.268,1.268,0,1,0,1.792-1.793L252.453,174l5.081-5.079a1.268,1.268,0,1,0-1.793-1.793l-5.977,5.976a1.267,1.267,0,0,0,0,1.792Z" transform="translate(1038.274 605.619)" fill="#1b54f8"></path><path id="Path_210" data-name="Path 210" d="M397.691,180.885a1.267,1.267,0,0,0,1.792,0l5.989-5.989a1.268,1.268,0,0,0,0-1.793l-5.976-5.976a1.268,1.268,0,1,0-1.793,1.793L402.782,174l-5.092,5.092a1.268,1.268,0,0,0,0,1.792Z" transform="translate(914.013 605.616)" fill="#1b54f8"></path><path id="Path_211" data-name="Path 211" d="M320.4,165.019a1.269,1.269,0,0,0,1.628-.753l7.2-19.564a1.268,1.268,0,0,0-2.381-.875l-7.2,19.564a1.27,1.27,0,0,0,.753,1.628Z" transform="translate(979.326 625.577)" fill="#1b54f8"></path></g></g></svg> 