<?xml version="1.0" encoding="UTF-8"?> <svg xmlns="http://www.w3.org/2000/svg" width="1097" height="393" viewBox="0 0 1097 393"><g id="Desktop_version" data-name="Desktop version" transform="translate(-119 -187)"><rect id="Rectangle_1" data-name="Rectangle 1" width="1097" height="393" transform="translate(119 187)" fill="#fff" opacity="0"></rect><g id="Group_4" data-name="Group 4"><path id="Path_54" data-name="Path 54" d="M237.9,21.17H160.815a4.044,4.044,0,0,0-4.075,4.06V26h72.672a7.089,7.089,0,0,1,7.1,7.1V106.39h1.43a4.044,4.044,0,0,0,4.06-4.075V25.23a4.029,4.029,0,0,0-4.106-4.06Z" transform="translate(57.032 311.91)" fill="#051c2c"></path><path id="Path_55" data-name="Path 55" d="M237.9,21.17H160.815a4.044,4.044,0,0,0-4.075,4.06V26h72.672a7.089,7.089,0,0,1,7.1,7.1V106.39h1.43a4.044,4.044,0,0,0,4.06-4.075V25.23a4.029,4.029,0,0,0-4.106-4.06Z" transform="translate(273.032 311.91)" fill="#051c2c"></path><path id="Path_56" data-name="Path 56" d="M237.9,21.17H160.815a4.044,4.044,0,0,0-4.075,4.06V26h72.672a7.089,7.089,0,0,1,7.1,7.1V106.39h1.43a4.044,4.044,0,0,0,4.06-4.075V25.23a4.029,4.029,0,0,0-4.106-4.06Z" transform="translate(490.032 311.91)" fill="#051c2c"></path><path id="Path_57" data-name="Path 57" d="M237.9,21.17H160.815a4.044,4.044,0,0,0-4.075,4.06V26h72.672a7.089,7.089,0,0,1,7.1,7.1V106.39h1.43a4.044,4.044,0,0,0,4.06-4.075V25.23a4.029,4.029,0,0,0-4.106-4.06Z" transform="translate(705.408 311.91)" fill="#051c2c"></path><path id="Path_58" data-name="Path 58" d="M237.9,21.17H160.815a4.044,4.044,0,0,0-4.075,4.06V26h72.672a7.089,7.089,0,0,1,7.1,7.1V106.39h1.43a4.044,4.044,0,0,0,4.06-4.075V25.23a4.029,4.029,0,0,0-4.106-4.06Z" transform="translate(923.408 311.91)" fill="#051c2c"></path><line id="Line_1" data-name="Line 1" x2="866.2" transform="translate(293.48 386.5)" fill="none" stroke="#051c2c" stroke-width="1"></line><path id="Path_1" data-name="Path 1" d="M811.54,194.7H726a7.38,7.38,0,0,1-7.4-7.4V101.8a7.38,7.38,0,0,1,7.4-7.4h85.5a7.38,7.38,0,0,1,7.4,7.4v85.5a7.51,7.51,0,0,1-7.36,7.4Z" transform="translate(124.34 242.9)" fill="#fff" stroke="#051c2c" stroke-width="1"></path><path id="Path_52" data-name="Path 52" d="M223.671,105.635H159.123a4.261,4.261,0,0,1-4.293-4.277V36.794a4.261,4.261,0,0,1,4.293-4.293h64.547a4.261,4.261,0,0,1,4.342,4.293v64.564a4.2,4.2,0,0,1-4.342,4.277Z" transform="translate(702.158 317.432)" fill="#eff0f0"></path><path id="Path_2" data-name="Path 2" d="M379,194.9H293.5a7.38,7.38,0,0,1-7.4-7.4V102a7.38,7.38,0,0,1,7.4-7.4H379a7.38,7.38,0,0,1,7.4,7.4v85.5a7.38,7.38,0,0,1-7.4,7.4Z" transform="translate(124.34 242.9)" fill="#fff" stroke="#051c2c" stroke-width="1"></path><path id="Path_3" data-name="Path 3" d="M161.74,194.7H76.24a7.38,7.38,0,0,1-7.4-7.4V101.8a7.38,7.38,0,0,1,7.4-7.4h85.5a7.38,7.38,0,0,1,7.4,7.4v85.5a7.38,7.38,0,0,1-7.4,7.4Z" transform="translate(124.34 242.9)" fill="#fff" stroke="#051c2c" stroke-width="1"></path><path id="Path_4" data-name="Path 4" d="M979,262.4H561.34a9.18,9.18,0,0,1-9.2-9.2V28.8a9.18,9.18,0,0,1,9.2-9.2H979a9.18,9.18,0,0,1,9.2,9.2V253.1a9.14,9.14,0,0,1-9.2,9.3Z" transform="translate(124.34 242.9)" fill="none" stroke="#1b54f8" stroke-width="1" stroke-dasharray="5.01 5.01"></path><path id="Path_49" data-name="Path 49" d="M223.671,105.635H159.123a4.261,4.261,0,0,1-4.293-4.277V36.794a4.261,4.261,0,0,1,4.293-4.293h64.547a4.261,4.261,0,0,1,4.342,4.293v64.564a4.2,4.2,0,0,1-4.342,4.277Z" transform="translate(51.968 317.432)" fill="#eff0f0"></path><path id="Path_50" data-name="Path 50" d="M223.671,105.635H159.123a4.261,4.261,0,0,1-4.293-4.277V36.794a4.261,4.261,0,0,1,4.293-4.293h64.547a4.261,4.261,0,0,1,4.342,4.293v64.564a4.2,4.2,0,0,1-4.342,4.277Z" transform="translate(269.168 317.432)" fill="#eff0f0"></path><text id="Planning_and" data-name="Planning and" transform="translate(193 473.44)" fill="#4a4a4a" font-size="15" font-family="Open Sans"><tspan x="0" y="0">Planning and</tspan></text><text id="Consulting" transform="translate(199.6 491.44)" fill="#4a4a4a" font-size="15" font-family="Open Sans"><tspan x="0" y="0">Consulting</tspan></text><text id="Visual_and_Technical" data-name="Visual and Technical" transform="translate(387 473.44)" fill="#4a4a4a" font-size="15" font-family="Open Sans"><tspan x="0" y="0">Visual and Technical</tspan></text><text id="Design" transform="translate(433.7 491.44)" fill="#4a4a4a" font-size="15" font-family="Open Sans"><tspan x="0" y="0">Design</tspan></text><rect id="Rectangle-3" width="84" height="30" transform="translate(643.98 449.4)" fill="#fff"></rect><text id="Development" transform="translate(632.02 473.44)" fill="#4a4a4a" font-size="15" font-family="Open Sans"><tspan x="0" y="0">Development</tspan></text><text id="Deployment" transform="translate(851.73 473.44)" fill="#4a4a4a" font-size="15" font-family="Open Sans"><tspan x="0" y="0">Deployment</tspan></text><rect id="Rectangle-3-2" data-name="Rectangle-3" width="84" height="30" transform="translate(1061.88 451.5)" fill="#fff"></rect><text id="Upgrades" transform="translate(1072.58 473.44)" fill="#4a4a4a" font-size="15" font-family="Open Sans"><tspan x="0" y="0">Upgrades</tspan></text><path id="Path_5" data-name="Path 5" d="M119.04,160.6l-4.7-2.3h9.4Z" transform="translate(124.34 242.9)" fill="#051c2c"></path><path id="Path_6" data-name="Path 6" d="M123.74,153.8V156h-9.4v-2.3h9.4Z" transform="translate(124.34 242.9)" fill="#051c2c"></path><path id="Path_7" data-name="Path 7" d="M126.44,148.7a5.15,5.15,0,0,0-2.3,2.7H114a3.83,3.83,0,0,0-1.7-2.1,11.45,11.45,0,1,1,18.2-9.3A11.32,11.32,0,0,1,126.44,148.7Z" transform="translate(124.34 242.9)" fill="#051c2c"></path><path id="Shape" d="M120.14,130.9a1.2,1.2,0,0,0-1.2,1.1,1.13,1.13,0,0,0,1.2,1.1,6,6,0,0,1,5.8,5.8,1.13,1.13,0,0,0,1.2,1.1,1.2,1.2,0,0,0,1.2-1.1,8,8,0,0,0-8.2-8Z" transform="translate(124.34 242.9)" fill="#eff0f0"></path><g id="visual" transform="translate(124.34 242.9)"><path id="Visual_TechnicalDesign_Icon" data-name="Visual TechnicalDesign Icon" d="M340.54,143.1a6,6,0,0,0,1.6-4,5.82,5.82,0,0,0-5-5.8l.7-.7V129l-1.5-1.7-1.6,1.7v3.6l.6.7a5.82,5.82,0,0,0-5,5.8,6,6,0,0,0,1.6,4l-6.1,12.2a3,3,0,0,0-2.7,3,2.6,2.6,0,0,0,.4,1.5l-1.3,2.6,3.6-1.1h.3a3,3,0,0,0,2.4-4.8l5.9-11.8a6.92,6.92,0,0,0,3.5,0l8.2,16.4,3.9,1.3Zm-14.2,16.7a1.6,1.6,0,1,1,1.6-1.6A1.72,1.72,0,0,1,326.34,159.8Zm10-17.6a3.1,3.1,0,1,1,3.1-3.1A3.1,3.1,0,0,1,336.34,142.2Z" fill="#051c2c"></path></g><path id="Path_8" data-name="Path 8" d="M595.14,194.7h-85.5a7.38,7.38,0,0,1-7.4-7.4V101.8a7.38,7.38,0,0,1,7.4-7.4h85.5a7.38,7.38,0,0,1,7.4,7.4v85.5a7.38,7.38,0,0,1-7.4,7.4Z" transform="translate(124.34 242.9)" fill="#fff" stroke="#051c2c" stroke-width="1"></path><path id="Path_9" data-name="Path 9" d="M750.74,163.6c-.2,0-.3-.1-.5-.2a.56.56,0,0,1,0-.9l9.2-9.5a.64.64,0,1,1,.9.9l-9.2,9.5A.76.76,0,0,1,750.74,163.6Z" transform="translate(124.34 242.9)" fill="#051c2c"></path><path id="Path_10" data-name="Path 10" d="M757.14,164a.52.52,0,0,1-.4-.2.64.64,0,0,1-.1-.9l6-6.7a.64.64,0,1,1,1,.8l-6,6.7a.55.55,0,0,1-.5.3Z" transform="translate(124.34 242.9)" fill="#051c2c"></path><path id="Path_11" data-name="Path 11" d="M750.24,157.6a.52.52,0,0,1-.4-.2.64.64,0,0,1-.1-.9l6-6.7a.64.64,0,1,1,1,.8l-6,6.7A.55.55,0,0,1,750.24,157.6Z" transform="translate(124.34 242.9)" fill="#051c2c"></path><path id="Path_12" data-name="Path 12" d="M772.64,150.4c-1.1.5-2.3,1-3.4,1.5l.4,5.5c1.7-.8,5.8-3.2,8.9-9.9-1.4.7-2.8,1.4-3.9,1.9a18.659,18.659,0,0,1-2,1Z" transform="translate(124.34 242.9)" fill="#051c2c"></path><path id="Path_13" data-name="Path 13" d="M775.84,134.7a2.34,2.34,0,0,0-1.7.7,2.06,2.06,0,0,0-.7,1.7,2.34,2.34,0,0,0,.7,1.7,2.48,2.48,0,0,0,3.4,0h0a2.06,2.06,0,0,0,.7-1.7,2.39,2.39,0,0,0-2.4-2.4Z" transform="translate(124.34 242.9)" fill="#051c2c"></path><path id="Path_14" data-name="Path 14" d="M764.14,136.7c.4-.7.8-1.5,1.2-2.3-6.7,3.1-9.2,7.1-10,8.8l5.5.4c.6-1.4,1.2-2.8,1.9-4.2C763.14,138.5,763.64,137.6,764.14,136.7Z" transform="translate(124.34 242.9)" fill="#051c2c"></path><path id="Path_15" data-name="Path 15" d="M778.24,125.9l8.8,8.7a30.522,30.522,0,0,0,.8-5V125a38.09,38.09,0,0,0-9.6.9Z" transform="translate(124.34 242.9)" fill="#051c2c"></path><path id="Path_16" data-name="Path 16" d="M783.14,142.3a2.652,2.652,0,0,0,.5-.6.1.1,0,0,1,.1-.1,4.229,4.229,0,0,0,.5-.7c.1-.1.1-.2.2-.2.1-.2.3-.4.4-.6a.761.761,0,0,0,.2-.4c.1-.2.2-.3.3-.5s.1-.3.2-.4.1-.2.2-.3a5.946,5.946,0,0,1,.4-.8.1.1,0,0,1,.1-.1c.2-.5.4-1,.6-1.6l-9.8-9.7a17.469,17.469,0,0,0-6.3,3.5l-.1.1-.6.6c-.1.1-.1.2-.2.2a33,33,0,0,0-4.2,6.5,10.09,10.09,0,0,0-.7,1.5c-.9,1.9-1.7,3.8-2.5,5.7-.1.1-.1.2-.3.3-.5,1.3-1,2.6-1.4,4l3.5,3.4c1.4-.4,2.8-.9,4.1-1.4.1-.1.2-.1.3-.2,1.3-.5,2.6-1,3.9-1.6a3,3,0,0,0,.8-.4c3.2-1.5,6.9-3.3,9.4-5.7l.6-.6C783,142.4,783,142.4,783.14,142.3Zm-4.7-2.6a3.81,3.81,0,0,1-2.6,1.1,3.68,3.68,0,0,1-2.6-6.3,3.87,3.87,0,0,1,5.3,0,3.63,3.63,0,0,1,1.1,2.6A4.46,4.46,0,0,1,778.44,139.7Z" transform="translate(124.34 242.9)" fill="#051c2c"></path><path id="Path_51" data-name="Path 51" d="M223.671,105.635H159.123a4.261,4.261,0,0,1-4.293-4.277V36.794a4.261,4.261,0,0,1,4.293-4.293h64.547a4.261,4.261,0,0,1,4.342,4.293v64.564a4.2,4.2,0,0,1-4.342,4.277Z" transform="translate(485.058 317.432)" fill="#eff0f0"></path><path id="Path_17" data-name="Path 17" d="M1027.94,195.1h-85.5a7.38,7.38,0,0,1-7.4-7.4V102.2a7.38,7.38,0,0,1,7.4-7.4h85.5a7.38,7.38,0,0,1,7.4,7.4v85.5a7.51,7.51,0,0,1-7.4,7.4Z" transform="translate(124.34 242.9)" fill="#fff" stroke="#051c2c" stroke-width="1"></path><path id="Path_53" data-name="Path 53" d="M223.671,105.635H159.123a4.261,4.261,0,0,1-4.293-4.277V36.794a4.261,4.261,0,0,1,4.293-4.293h64.547a4.261,4.261,0,0,1,4.342,4.293v64.564a4.2,4.2,0,0,1-4.342,4.277Z" transform="translate(921.12 317.432)" fill="#eff0f0"></path><g id="Group_3" data-name="Group 3" transform="translate(2.981 0)"><path id="Path_18" data-name="Path 18" d="M1003.84,126.5h-37.4a3.16,3.16,0,0,0-3.2,3.2v30.4a3.22,3.22,0,0,0,3.2,3.2h12.9a2.77,2.77,0,0,1-.1-.9v-3.2h-11.6a.22.22,0,0,1-.2-.2V135.9h35.7V159a.22.22,0,0,1-.2.2h-11.7v3.2a2.771,2.771,0,0,1-.1.9H1004a3.16,3.16,0,0,0,3.2-3.2V129.7a3.4,3.4,0,0,0-3.36-3.2Zm-35.2,6.1a1.4,1.4,0,1,1,1.4-1.4,1.4,1.4,0,0,1-1.4,1.4Zm4.2,0a1.43,1.43,0,0,1-1.4-1.4,1.4,1.4,0,1,1,1.4,1.4Zm4.2,0a1.4,1.4,0,1,1,1.4-1.4,1.37,1.37,0,0,1-1.44,1.4Z" transform="translate(124.34 242.9)" fill="#051c2c"></path><path id="Path_19" data-name="Path 19" d="M992.54,152.1l-6.7-8.6a.84.84,0,0,0-1.4,0l-6.7,8.6a.93.93,0,0,0,.7,1.5H982v8.9a.9.9,0,0,0,.9.9h4.4a.9.9,0,0,0,.9-.9v-8.9h3.6a.91.91,0,0,0,.74-1.5Z" transform="translate(124.34 242.9)" fill="#051c2c"></path></g><g id="dev" transform="translate(124.34 242.9)"><path id="Shape-2" data-name="Shape" d="M545.84,152.9l-1,1a.76.76,0,0,1-.4.2,1.06,1.06,0,0,1-.5-.2L535,145a.76.76,0,0,1-.2-.4.52.52,0,0,1,.2-.4l8.9-8.9a.5.5,0,0,1,.8,0l1,1a.761.761,0,0,1,.2.4.6.6,0,0,1-.1.4l-7.5,7.5,7.5,7.4a.6.6,0,0,1,0,.9Zm11.3-20.3L550,157.2c0,.2-.2.3-.3.4a.45.45,0,0,1-.5,0l-1.2-.3c-.2,0-.3-.2-.4-.3a.45.45,0,0,1,0-.5l7.1-24.5c0-.2.2-.3.3-.4a.45.45,0,0,1,.5,0l1.2.3c.2,0,.3.2.4.3Zm12.6,12.4-8.9,8.9a.5.5,0,0,1-.8,0l-1-1a.76.76,0,0,1-.2-.4.52.52,0,0,1,.2-.4l7.5-7.5-7.5-7.5a.5.5,0,0,1,0-.8l1-1a.5.5,0,0,1,.8,0l8.9,8.9a.5.5,0,0,1,0,.8Z" fill="#051c2c"></path></g><rect id="Rectangle" width="44" height="23" transform="translate(875.98 493.8)" fill="#fff"></rect><path id="Shape-3" data-name="Shape" d="M767.44,251.2a1.131,1.131,0,0,1,1.6,1.6l-8,8h26.6a1.1,1.1,0,1,1,0,2.2H761l8,8a1.131,1.131,0,1,1-1.6,1.6l-10-10a1.21,1.21,0,0,1,0-1.6Z" transform="translate(124.34 242.9)" fill="#1b54f8"></path><rect id="Rectangle-2" data-name="Rectangle" width="44" height="23" transform="translate(881.98 250)" fill="#fff"></rect><path id="Shape-4" data-name="Shape" d="M785.94,30.3a1.131,1.131,0,0,1-1.6-1.6l8-8h-26.6a1.1,1.1,0,0,1,0-2.2h26.6l-8-8a1.22,1.22,0,0,1,0-1.6,1.21,1.21,0,0,1,1.6,0l10,10a1.21,1.21,0,0,1,0,1.6Z" transform="translate(124.34 242.9)" fill="#1b54f8"></path></g></g></svg> 