<?xml version="1.0" encoding="UTF-8"?> <svg xmlns="http://www.w3.org/2000/svg" width="90" height="90" viewBox="0 0 90 90"><g id="Group_166" data-name="Group 166" transform="translate(-279 -743)"><rect id="Rectangle_10" data-name="Rectangle 10" width="90" height="90" transform="translate(279 743)" fill="#fff" opacity="0"></rect><g id="Group_163" data-name="Group 163" transform="translate(-697.916 5.829)"><path id="Path_105" data-name="Path 105" d="M168.4,87.382a1.272,1.272,0,0,1-.643-.161L154.8,79.986a1.324,1.324,0,0,1-.689-1.194,1.3,1.3,0,0,1,.735-1.148L167.8,71.166a1.314,1.314,0,0,1,1.171,0l12.954,6.454a1.32,1.32,0,0,1,.046,2.343L169.02,87.2a1.161,1.161,0,0,1-.62.184Zm-10.129-8.5,10.129,5.65,10.129-5.65L168.4,73.831Z" transform="translate(827.802 669.143)" fill="#1b54f8" fill-rule="evenodd"></path><path id="Path_106" data-name="Path 106" d="M219.641,127.973a1.469,1.469,0,0,1-.689-.184,1.322,1.322,0,0,1-.643-1.126v-15.09a1.332,1.332,0,1,1,2.664,0v12.908l10.312-5.351V104.339a1.332,1.332,0,1,1,2.664,0v15.6a1.337,1.337,0,0,1-.712,1.171l-12.954,6.729a1.7,1.7,0,0,1-.643.138Z" transform="translate(776.561 643.617)" fill="#1b54f8" fill-rule="evenodd"></path><path id="Path_107" data-name="Path 107" d="M168.49,127.973a1.339,1.339,0,0,1-.6-.138l-12.954-6.729a1.336,1.336,0,0,1-.712-1.171v-15.6a1.332,1.332,0,1,1,2.664,0v14.791l12.242,6.362a1.351,1.351,0,0,1,.574,1.792,1.442,1.442,0,0,1-1.217.689Z" transform="translate(827.712 643.617)" fill="#1b54f8" fill-rule="evenodd"></path><path id="Path_108" data-name="Path 108" d="M419.149,87.382a1.272,1.272,0,0,1-.643-.161l-12.954-7.235a1.324,1.324,0,0,1-.689-1.194,1.3,1.3,0,0,1,.735-1.148l12.954-6.477a1.314,1.314,0,0,1,1.171,0l12.954,6.454a1.32,1.32,0,0,1,.046,2.343L419.769,87.2a1.158,1.158,0,0,1-.62.184Zm-10.129-8.5,10.129,5.65,10.129-5.65-10.129-5.053Z" transform="translate(627.651 669.143)" fill="#1b54f8" fill-rule="evenodd"></path><path id="Path_109" data-name="Path 109" d="M470.391,127.973a1.469,1.469,0,0,1-.689-.184,1.322,1.322,0,0,1-.643-1.126v-15.09a1.332,1.332,0,1,1,2.664,0v12.908l10.313-5.351V104.339a1.332,1.332,0,1,1,2.664,0v15.6a1.337,1.337,0,0,1-.712,1.171l-12.954,6.729a1.7,1.7,0,0,1-.643.138Z" transform="translate(576.41 643.617)" fill="#1b54f8" fill-rule="evenodd"></path><path id="Path_110" data-name="Path 110" d="M419.24,127.973a1.34,1.34,0,0,1-.6-.138l-12.954-6.729a1.336,1.336,0,0,1-.712-1.171v-15.6a1.332,1.332,0,1,1,2.664,0v14.791l12.242,6.362a1.351,1.351,0,0,1,.574,1.792,1.444,1.444,0,0,1-1.217.689Z" transform="translate(627.561 643.617)" fill="#1b54f8" fill-rule="evenodd"></path><path id="Path_111" data-name="Path 111" d="M168.4,351.3a1.272,1.272,0,0,1-.643-.161L154.8,343.907a1.324,1.324,0,0,1-.689-1.194,1.3,1.3,0,0,1,.735-1.148L167.8,335.11a1.314,1.314,0,0,1,1.171,0l12.954,6.454a1.32,1.32,0,0,1,.046,2.343l-12.954,7.235a1.371,1.371,0,0,1-.62.161Zm-10.129-8.5,10.129,5.65,10.129-5.65L168.4,337.752Z" transform="translate(827.802 458.46)" fill="#1b54f8" fill-rule="evenodd"></path><path id="Path_112" data-name="Path 112" d="M219.641,391.923a1.469,1.469,0,0,1-.689-.184,1.322,1.322,0,0,1-.643-1.126v-15.09a1.332,1.332,0,0,1,2.664,0v12.908l10.312-5.352V368.289a1.332,1.332,0,0,1,2.664,0v15.6a1.337,1.337,0,0,1-.712,1.171l-12.954,6.729A2.325,2.325,0,0,1,219.641,391.923Z" transform="translate(776.561 432.93)" fill="#1b54f8" fill-rule="evenodd"></path><path id="Path_113" data-name="Path 113" d="M168.49,391.923a1.339,1.339,0,0,1-.6-.138l-12.954-6.729a1.336,1.336,0,0,1-.712-1.171v-15.6a1.332,1.332,0,1,1,2.664,0v14.791l12.242,6.362a1.351,1.351,0,0,1,.574,1.792,1.5,1.5,0,0,1-1.217.689Z" transform="translate(827.712 432.93)" fill="#1b54f8" fill-rule="evenodd"></path><path id="Path_114" data-name="Path 114" d="M419.149,351.3a1.272,1.272,0,0,1-.643-.161l-12.954-7.235a1.324,1.324,0,0,1-.689-1.194,1.3,1.3,0,0,1,.735-1.148l12.954-6.454a1.314,1.314,0,0,1,1.171,0l12.954,6.454a1.368,1.368,0,0,1,.735,1.148,1.332,1.332,0,0,1-.689,1.194l-12.954,7.235a1.374,1.374,0,0,1-.62.161Zm-10.129-8.5,10.129,5.65,10.129-5.65-10.129-5.053Z" transform="translate(627.651 458.46)" fill="#1b54f8" fill-rule="evenodd"></path><path id="Path_115" data-name="Path 115" d="M470.391,391.923a1.469,1.469,0,0,1-.689-.184,1.322,1.322,0,0,1-.643-1.126v-15.09a1.332,1.332,0,1,1,2.664,0v12.908l10.313-5.352V368.289a1.332,1.332,0,1,1,2.664,0v15.6a1.337,1.337,0,0,1-.712,1.171l-12.954,6.729a2.331,2.331,0,0,1-.643.138Z" transform="translate(576.41 432.93)" fill="#1b54f8" fill-rule="evenodd"></path><path id="Path_116" data-name="Path 116" d="M419.24,391.923a1.339,1.339,0,0,1-.6-.138l-12.954-6.729a1.336,1.336,0,0,1-.712-1.171v-15.6a1.332,1.332,0,1,1,2.664,0v14.791l12.242,6.362a1.351,1.351,0,0,1,.574,1.792,1.5,1.5,0,0,1-1.217.689Z" transform="translate(627.561 432.93)" fill="#1b54f8" fill-rule="evenodd"></path><path id="Path_117" data-name="Path 117" d="M330.475,145.961H320.6a1.332,1.332,0,1,1,0-2.664h9.876a1.332,1.332,0,1,1,0,2.664Z" transform="translate(695.975 611.458)" fill="#1b54f8" fill-rule="evenodd"></path><path id="Path_118" data-name="Path 118" d="M330.475,410.371H320.6a1.332,1.332,0,1,1,0-2.664h9.876a1.332,1.332,0,1,1,0,2.664Z" transform="translate(695.975 400.403)" fill="#1b54f8" fill-rule="evenodd"></path><path id="Path_119" data-name="Path 119" d="M470.391,262.266a1.333,1.333,0,0,1-1.332-1.332v-9.876a1.332,1.332,0,1,1,2.664,0v9.876A1.333,1.333,0,0,1,470.391,262.266Z" transform="translate(576.41 526.505)" fill="#1b54f8" fill-rule="evenodd"></path><path id="Path_120" data-name="Path 120" d="M219.641,262.266a1.334,1.334,0,0,1-1.332-1.332v-9.876a1.332,1.332,0,1,1,2.664,0v9.876A1.333,1.333,0,0,1,219.641,262.266Z" transform="translate(776.561 526.505)" fill="#1b54f8" fill-rule="evenodd"></path></g></g></svg> 